<svg xmlns="http://www.w3.org/2000/svg" width="24" height="24" viewBox="0 0 24 24"><path class="color" fill="#29242D" d="M14.6885 17.9102c.394-.716.715-1.583.94-2.561h1.931c-.676 1.118-1.675 2.015-2.871 2.561zm-8.248-2.561h1.931c.225.978.546 1.845.94 2.561-1.196-.546-2.195-1.443-2.871-2.561zm2.871-9.26c-.394.717-.715 1.584-.94 2.561h-1.931c.676-1.117 1.675-2.014 2.871-2.561zm2.689-.589c.67 0 1.573 1.182 2.089 3.15h-4.179c.516-1.968 1.419-3.15 2.09-3.15zm-6.5 6.5c0-.571.081-1.122.22-1.651h2.365c-.055.534-.085 1.084-.085 1.651 0 .566.03 1.117.085 1.65h-2.365c-.139-.528-.22-1.079-.22-1.65zm4.096 1.65c-.059-.519-.096-1.068-.096-1.65 0-.582.037-1.131.096-1.651h4.807c.059.52.097 1.069.097 1.651 0 .582-.038 1.131-.097 1.65h-4.807zm2.404 4.85c-.671 0-1.574-1.184-2.09-3.151h4.179c-.516 1.967-1.419 3.151-2.089 3.151zm6.5-6.5c0 .571-.082 1.122-.221 1.65h-2.365c.055-.533.086-1.084.086-1.65 0-.567-.031-1.117-.086-1.651h2.365c.139.529.221 1.08.221 1.651zm-.941-3.35h-1.931c-.225-.977-.546-1.844-.94-2.561 1.196.547 2.195 1.444 2.871 2.561zm-5.559-4.65c-4.418 0-8 3.582-8 8s3.582 8 8 8c4.417 0 8-3.582 8-8s-3.583-8-8-8z"></path></svg>