<?xml version="1.0" encoding="utf-8"?>
<!-- Generator: Adobe Illustrator 24.1.2, SVG Export Plug-In . SVG Version: 6.00 Build 0)  -->
<svg version="1.2" baseProfile="tiny-ps" id="圖層_1"
	 xmlns="http://www.w3.org/2000/svg" xmlns:xlink="http://www.w3.org/1999/xlink" viewBox="0 0 1080 1080"
	 xml:space="preserve">
<title>Pinkoi</title>
<g>
	<g>
		<path fill="#003354" d="M828,1080H252C112.8,1080,0,967.2,0,828V252C0,112.8,112.8,0,252,0h576c139.2,0,252,112.8,252,252v576
			C1080,967.2,967.2,1080,828,1080z"/>
		<g>
			<path fill="#EE847D" d="M583.4,204.8c-136.3-1-247.7,114.1-247.7,250.3v235.6c0,63.8-39.7,117.8-94.5,136.5
				c-10.2,3.5-11.4,17.5-2.1,22.9l69.6,40.2c11.8,6.8,26.5,5.8,37.4-2.4c60-44.9,98.9-116.5,98.9-197.1V453.9
				c0-75.2,59.4-138.6,134.5-139.7c77.2-1.2,139.9,61.6,138.8,138.8c-1.1,75.2-64.6,134.5-139.7,134.5h-60.5
				c-9.3,0-16.9,7.6-16.9,16.9v75.6c0,9.3,7.6,16.9,16.9,16.9h59.2c136.3,0,251.3-111.5,250.3-247.7
				C826.7,314.6,717.9,205.8,583.4,204.8z"/>
		</g>
	</g>
</g>
</svg>
