<svg width="38" height="38" viewBox="0 0 38 38" fill="none" xmlns="http://www.w3.org/2000/svg">
<path d="M13.764 1.34826C14.1363 1.34826 14.4381 1.04644 14.4381 0.67413C14.4381 0.301818 14.1363 0 13.764 0C13.3917 0 13.0898 0.301818 13.0898 0.67413C13.0898 1.04644 13.3917 1.34826 13.764 1.34826Z" fill="#39393E"/>
<path d="M15.0731 1.34826C15.4454 1.34826 15.7472 1.04644 15.7472 0.67413C15.7472 0.301818 15.4454 0 15.0731 0C14.7007 0 14.3989 0.301818 14.3989 0.67413C14.3989 1.04644 14.7007 1.34826 15.0731 1.34826Z" fill="#39393E"/>
<path d="M16.3821 1.34826C16.7544 1.34826 17.0563 1.04644 17.0563 0.67413C17.0563 0.301818 16.7544 0 16.3821 0C16.0098 0 15.708 0.301818 15.708 0.67413C15.708 1.04644 16.0098 1.34826 16.3821 1.34826Z" fill="#39393E"/>
<path d="M17.691 1.34826C18.0633 1.34826 18.3651 1.04644 18.3651 0.67413C18.3651 0.301818 18.0633 0 17.691 0C17.3187 0 17.0168 0.301818 17.0168 0.67413C17.0168 1.04644 17.3187 1.34826 17.691 1.34826Z" fill="#39393E"/>
<path d="M19.0001 1.34826C19.3724 1.34826 19.6742 1.04644 19.6742 0.67413C19.6742 0.301818 19.3724 0 19.0001 0C18.6277 0 18.3259 0.301818 18.3259 0.67413C18.3259 1.04644 18.6277 1.34826 19.0001 1.34826Z" fill="#39393E"/>
<path d="M20.3089 1.34826C20.6812 1.34826 20.983 1.04644 20.983 0.67413C20.983 0.301818 20.6812 0 20.3089 0C19.9366 0 19.6348 0.301818 19.6348 0.67413C19.6348 1.04644 19.9366 1.34826 20.3089 1.34826Z" fill="#39393E"/>
<path d="M22.9271 1.34826C23.2994 1.34826 23.6012 1.04644 23.6012 0.67413C23.6012 0.301818 23.2994 0 22.9271 0C22.5547 0 22.2529 0.301818 22.2529 0.67413C22.2529 1.04644 22.5547 1.34826 22.9271 1.34826Z" fill="#39393E"/>
<path d="M24.2359 1.34826C24.6082 1.34826 24.91 1.04644 24.91 0.67413C24.91 0.301818 24.6082 0 24.2359 0C23.8636 0 23.5618 0.301818 23.5618 0.67413C23.5618 1.04644 23.8636 1.34826 24.2359 1.34826Z" fill="#39393E"/>
<path d="M25.5447 1.34826C25.917 1.34826 26.2189 1.04644 26.2189 0.67413C26.2189 0.301818 25.917 0 25.5447 0C25.1724 0 24.8706 0.301818 24.8706 0.67413C24.8706 1.04644 25.1724 1.34826 25.5447 1.34826Z" fill="#39393E"/>
<path d="M13.764 2.65734C14.1363 2.65734 14.4381 2.35552 14.4381 1.98321C14.4381 1.6109 14.1363 1.30908 13.764 1.30908C13.3917 1.30908 13.0898 1.6109 13.0898 1.98321C13.0898 2.35552 13.3917 2.65734 13.764 2.65734Z" fill="#39393E"/>
<path d="M15.0731 2.65734C15.4454 2.65734 15.7472 2.35552 15.7472 1.98321C15.7472 1.6109 15.4454 1.30908 15.0731 1.30908C14.7007 1.30908 14.3989 1.6109 14.3989 1.98321C14.3989 2.35552 14.7007 2.65734 15.0731 2.65734Z" fill="#39393E"/>
<path d="M17.691 2.65722C18.0633 2.65722 18.3651 2.3554 18.3651 1.98309C18.3651 1.61078 18.0633 1.30896 17.691 1.30896C17.3187 1.30896 17.0168 1.61078 17.0168 1.98309C17.0168 2.3554 17.3187 2.65722 17.691 2.65722Z" fill="#39393E"/>
<path d="M19.0001 2.65722C19.3724 2.65722 19.6742 2.3554 19.6742 1.98309C19.6742 1.61078 19.3724 1.30896 19.0001 1.30896C18.6277 1.30896 18.3259 1.61078 18.3259 1.98309C18.3259 2.3554 18.6277 2.65722 19.0001 2.65722Z" fill="#39393E"/>
<path d="M20.3089 2.65734C20.6812 2.65734 20.983 2.35552 20.983 1.98321C20.983 1.6109 20.6812 1.30908 20.3089 1.30908C19.9366 1.30908 19.6348 1.6109 19.6348 1.98321C19.6348 2.35552 19.9366 2.65734 20.3089 2.65734Z" fill="#39393E"/>
<path d="M21.618 2.65734C21.9903 2.65734 22.2921 2.35552 22.2921 1.98321C22.2921 1.6109 21.9903 1.30908 21.618 1.30908C21.2457 1.30908 20.9438 1.6109 20.9438 1.98321C20.9438 2.35552 21.2457 2.65734 21.618 2.65734Z" fill="#39393E"/>
<path d="M22.9271 2.65734C23.2994 2.65734 23.6012 2.35552 23.6012 1.98321C23.6012 1.6109 23.2994 1.30908 22.9271 1.30908C22.5547 1.30908 22.2529 1.6109 22.2529 1.98321C22.2529 2.35552 22.5547 2.65734 22.9271 2.65734Z" fill="#39393E"/>
<path d="M26.8538 2.65734C27.2261 2.65734 27.5279 2.35552 27.5279 1.98321C27.5279 1.6109 27.2261 1.30908 26.8538 1.30908C26.4815 1.30908 26.1797 1.6109 26.1797 1.98321C26.1797 2.35552 26.4815 2.65734 26.8538 2.65734Z" fill="#39393E"/>
<path d="M11.1461 3.9663C11.5184 3.9663 11.8202 3.66448 11.8202 3.29217C11.8202 2.91986 11.5184 2.61804 11.1461 2.61804C10.7737 2.61804 10.4719 2.91986 10.4719 3.29217C10.4719 3.66448 10.7737 3.9663 11.1461 3.9663Z" fill="#39393E"/>
<path d="M13.764 3.96618C14.1363 3.96618 14.4381 3.66436 14.4381 3.29205C14.4381 2.91974 14.1363 2.61792 13.764 2.61792C13.3917 2.61792 13.0898 2.91974 13.0898 3.29205C13.0898 3.66436 13.3917 3.96618 13.764 3.96618Z" fill="#39393E"/>
<path d="M17.691 3.96618C18.0633 3.96618 18.3651 3.66436 18.3651 3.29205C18.3651 2.91974 18.0633 2.61792 17.691 2.61792C17.3187 2.61792 17.0168 2.91974 17.0168 3.29205C17.0168 3.66436 17.3187 3.96618 17.691 3.96618Z" fill="#39393E"/>
<path d="M20.3089 3.96618C20.6812 3.96618 20.983 3.66436 20.983 3.29205C20.983 2.91974 20.6812 2.61792 20.3089 2.61792C19.9366 2.61792 19.6348 2.91974 19.6348 3.29205C19.6348 3.66436 19.9366 3.96618 20.3089 3.96618Z" fill="#39393E"/>
<path d="M26.8538 3.96618C27.2261 3.96618 27.5279 3.66436 27.5279 3.29205C27.5279 2.91974 27.2261 2.61792 26.8538 2.61792C26.4815 2.61792 26.1797 2.91974 26.1797 3.29205C26.1797 3.66436 26.4815 3.96618 26.8538 3.96618Z" fill="#39393E"/>
<path d="M11.1461 5.27526C11.5184 5.27526 11.8202 4.97344 11.8202 4.60113C11.8202 4.22882 11.5184 3.927 11.1461 3.927C10.7737 3.927 10.4719 4.22882 10.4719 4.60113C10.4719 4.97344 10.7737 5.27526 11.1461 5.27526Z" fill="#39393E"/>
<path d="M15.0731 5.27526C15.4454 5.27526 15.7472 4.97344 15.7472 4.60113C15.7472 4.22882 15.4454 3.927 15.0731 3.927C14.7007 3.927 14.3989 4.22882 14.3989 4.60113C14.3989 4.97344 14.7007 5.27526 15.0731 5.27526Z" fill="#39393E"/>
<path d="M16.3821 5.27526C16.7544 5.27526 17.0563 4.97344 17.0563 4.60113C17.0563 4.22882 16.7544 3.927 16.3821 3.927C16.0098 3.927 15.708 4.22882 15.708 4.60113C15.708 4.97344 16.0098 5.27526 16.3821 5.27526Z" fill="#39393E"/>
<path d="M19.0001 5.27526C19.3724 5.27526 19.6742 4.97344 19.6742 4.60113C19.6742 4.22882 19.3724 3.927 19.0001 3.927C18.6277 3.927 18.3259 4.22882 18.3259 4.60113C18.3259 4.97344 18.6277 5.27526 19.0001 5.27526Z" fill="#39393E"/>
<path d="M20.3089 5.27526C20.6812 5.27526 20.983 4.97344 20.983 4.60113C20.983 4.22882 20.6812 3.927 20.3089 3.927C19.9366 3.927 19.6348 4.22882 19.6348 4.60113C19.6348 4.97344 19.9366 5.27526 20.3089 5.27526Z" fill="#39393E"/>
<path d="M22.9271 5.27526C23.2994 5.27526 23.6012 4.97344 23.6012 4.60113C23.6012 4.22882 23.2994 3.927 22.9271 3.927C22.5547 3.927 22.2529 4.22882 22.2529 4.60113C22.2529 4.97344 22.5547 5.27526 22.9271 5.27526Z" fill="#39393E"/>
<path d="M25.5447 5.27526C25.917 5.27526 26.2189 4.97344 26.2189 4.60113C26.2189 4.22882 25.917 3.927 25.5447 3.927C25.1724 3.927 24.8706 4.22882 24.8706 4.60113C24.8706 4.97344 25.1724 5.27526 25.5447 5.27526Z" fill="#39393E"/>
<path d="M11.1461 6.58422C11.5184 6.58422 11.8202 6.2824 11.8202 5.91009C11.8202 5.53778 11.5184 5.23596 11.1461 5.23596C10.7737 5.23596 10.4719 5.53778 10.4719 5.91009C10.4719 6.2824 10.7737 6.58422 11.1461 6.58422Z" fill="#39393E"/>
<path d="M13.764 6.58422C14.1363 6.58422 14.4381 6.2824 14.4381 5.91009C14.4381 5.53778 14.1363 5.23596 13.764 5.23596C13.3917 5.23596 13.0898 5.53778 13.0898 5.91009C13.0898 6.2824 13.3917 6.58422 13.764 6.58422Z" fill="#39393E"/>
<path d="M15.0731 6.58422C15.4454 6.58422 15.7472 6.2824 15.7472 5.91009C15.7472 5.53778 15.4454 5.23596 15.0731 5.23596C14.7007 5.23596 14.3989 5.53778 14.3989 5.91009C14.3989 6.2824 14.7007 6.58422 15.0731 6.58422Z" fill="#39393E"/>
<path d="M16.3821 6.58422C16.7544 6.58422 17.0563 6.2824 17.0563 5.91009C17.0563 5.53778 16.7544 5.23596 16.3821 5.23596C16.0098 5.23596 15.708 5.53778 15.708 5.91009C15.708 6.2824 16.0098 6.58422 16.3821 6.58422Z" fill="#39393E"/>
<path d="M20.3089 6.58422C20.6812 6.58422 20.983 6.2824 20.983 5.91009C20.983 5.53778 20.6812 5.23596 20.3089 5.23596C19.9366 5.23596 19.6348 5.53778 19.6348 5.91009C19.6348 6.2824 19.9366 6.58422 20.3089 6.58422Z" fill="#39393E"/>
<path d="M21.618 6.58422C21.9903 6.58422 22.2921 6.2824 22.2921 5.91009C22.2921 5.53778 21.9903 5.23596 21.618 5.23596C21.2457 5.23596 20.9438 5.53778 20.9438 5.91009C20.9438 6.2824 21.2457 6.58422 21.618 6.58422Z" fill="#39393E"/>
<path d="M24.2359 6.58434C24.6082 6.58434 24.91 6.28253 24.91 5.91021C24.91 5.5379 24.6082 5.23608 24.2359 5.23608C23.8636 5.23608 23.5618 5.5379 23.5618 5.91021C23.5618 6.28253 23.8636 6.58434 24.2359 6.58434Z" fill="#39393E"/>
<path d="M25.5447 6.5841C25.917 6.5841 26.2189 6.28228 26.2189 5.90997C26.2189 5.53766 25.917 5.23584 25.5447 5.23584C25.1724 5.23584 24.8706 5.53766 24.8706 5.90997C24.8706 6.28228 25.1724 6.5841 25.5447 6.5841Z" fill="#39393E"/>
<path d="M26.8538 6.58422C27.2261 6.58422 27.5279 6.2824 27.5279 5.91009C27.5279 5.53778 27.2261 5.23596 26.8538 5.23596C26.4815 5.23596 26.1797 5.53778 26.1797 5.91009C26.1797 6.2824 26.4815 6.58422 26.8538 6.58422Z" fill="#39393E"/>
<path d="M11.1461 7.89318C11.5184 7.89318 11.8202 7.59136 11.8202 7.21905C11.8202 6.84674 11.5184 6.54492 11.1461 6.54492C10.7737 6.54492 10.4719 6.84674 10.4719 7.21905C10.4719 7.59136 10.7737 7.89318 11.1461 7.89318Z" fill="#39393E"/>
<path d="M16.3821 7.89318C16.7544 7.89318 17.0563 7.59136 17.0563 7.21905C17.0563 6.84674 16.7544 6.54492 16.3821 6.54492C16.0098 6.54492 15.708 6.84674 15.708 7.21905C15.708 7.59136 16.0098 7.89318 16.3821 7.89318Z" fill="#39393E"/>
<path d="M24.2359 7.89318C24.6082 7.89318 24.91 7.59136 24.91 7.21905C24.91 6.84674 24.6082 6.54492 24.2359 6.54492C23.8636 6.54492 23.5618 6.84674 23.5618 7.21905C23.5618 7.59136 23.8636 7.89318 24.2359 7.89318Z" fill="#39393E"/>
<path d="M26.8538 7.89318C27.2261 7.89318 27.5279 7.59136 27.5279 7.21905C27.5279 6.84674 27.2261 6.54492 26.8538 6.54492C26.4815 6.54492 26.1797 6.84674 26.1797 7.21905C26.1797 7.59136 26.4815 7.89318 26.8538 7.89318Z" fill="#39393E"/>
<path d="M11.1461 9.20214C11.5184 9.20214 11.8202 8.90032 11.8202 8.52801C11.8202 8.1557 11.5184 7.85388 11.1461 7.85388C10.7737 7.85388 10.4719 8.1557 10.4719 8.52801C10.4719 8.90032 10.7737 9.20214 11.1461 9.20214Z" fill="#39393E"/>
<path d="M13.764 9.20226C14.1363 9.20226 14.4381 8.90045 14.4381 8.52813C14.4381 8.15582 14.1363 7.854 13.764 7.854C13.3917 7.854 13.0898 8.15582 13.0898 8.52813C13.0898 8.90045 13.3917 9.20226 13.764 9.20226Z" fill="#39393E"/>
<path d="M16.3821 9.20226C16.7544 9.20226 17.0563 8.90045 17.0563 8.52813C17.0563 8.15582 16.7544 7.854 16.3821 7.854C16.0098 7.854 15.708 8.15582 15.708 8.52813C15.708 8.90045 16.0098 9.20226 16.3821 9.20226Z" fill="#39393E"/>
<path d="M19.0001 9.20226C19.3724 9.20226 19.6742 8.90045 19.6742 8.52813C19.6742 8.15582 19.3724 7.854 19.0001 7.854C18.6277 7.854 18.3259 8.15582 18.3259 8.52813C18.3259 8.90045 18.6277 9.20226 19.0001 9.20226Z" fill="#39393E"/>
<path d="M21.618 9.20226C21.9903 9.20226 22.2921 8.90045 22.2921 8.52813C22.2921 8.15582 21.9903 7.854 21.618 7.854C21.2457 7.854 20.9438 8.15582 20.9438 8.52813C20.9438 8.90045 21.2457 9.20226 21.618 9.20226Z" fill="#39393E"/>
<path d="M24.2359 9.20214C24.6082 9.20214 24.91 8.90032 24.91 8.52801C24.91 8.1557 24.6082 7.85388 24.2359 7.85388C23.8636 7.85388 23.5618 8.1557 23.5618 8.52801C23.5618 8.90032 23.8636 9.20214 24.2359 9.20214Z" fill="#39393E"/>
<path d="M26.8538 9.20226C27.2261 9.20226 27.5279 8.90045 27.5279 8.52813C27.5279 8.15582 27.2261 7.854 26.8538 7.854C26.4815 7.854 26.1797 8.15582 26.1797 8.52813C26.1797 8.90045 26.4815 9.20226 26.8538 9.20226Z" fill="#39393E"/>
<path d="M11.1461 10.5113C11.5184 10.5113 11.8202 10.2095 11.8202 9.83722C11.8202 9.4649 11.5184 9.16309 11.1461 9.16309C10.7737 9.16309 10.4719 9.4649 10.4719 9.83722C10.4719 10.2095 10.7737 10.5113 11.1461 10.5113Z" fill="#39393E"/>
<path d="M12.4549 10.5111C12.8272 10.5111 13.129 10.2093 13.129 9.83697C13.129 9.46466 12.8272 9.16284 12.4549 9.16284C12.0826 9.16284 11.7808 9.46466 11.7808 9.83697C11.7808 10.2093 12.0826 10.5111 12.4549 10.5111Z" fill="#39393E"/>
<path d="M15.0731 10.5111C15.4454 10.5111 15.7472 10.2093 15.7472 9.83697C15.7472 9.46466 15.4454 9.16284 15.0731 9.16284C14.7007 9.16284 14.3989 9.46466 14.3989 9.83697C14.3989 10.2093 14.7007 10.5111 15.0731 10.5111Z" fill="#39393E"/>
<path d="M19.0001 10.5112C19.3724 10.5112 19.6742 10.2094 19.6742 9.83709C19.6742 9.46478 19.3724 9.16296 19.0001 9.16296C18.6277 9.16296 18.3259 9.46478 18.3259 9.83709C18.3259 10.2094 18.6277 10.5112 19.0001 10.5112Z" fill="#39393E"/>
<path d="M21.618 10.5111C21.9903 10.5111 22.2921 10.2093 22.2921 9.83697C22.2921 9.46466 21.9903 9.16284 21.618 9.16284C21.2457 9.16284 20.9438 9.46466 20.9438 9.83697C20.9438 10.2093 21.2457 10.5111 21.618 10.5111Z" fill="#39393E"/>
<path d="M25.5447 10.5112C25.917 10.5112 26.2189 10.2094 26.2189 9.83709C26.2189 9.46478 25.917 9.16296 25.5447 9.16296C25.1724 9.16296 24.8706 9.46478 24.8706 9.83709C24.8706 10.2094 25.1724 10.5112 25.5447 10.5112Z" fill="#39393E"/>
<path d="M26.8538 10.5111C27.2261 10.5111 27.5279 10.2093 27.5279 9.83697C27.5279 9.46466 27.2261 9.16284 26.8538 9.16284C26.4815 9.16284 26.1797 9.46466 26.1797 9.83697C26.1797 10.2093 26.4815 10.5111 26.8538 10.5111Z" fill="#39393E"/>
<path d="M0.67413 11.8202C1.04644 11.8202 1.34826 11.5184 1.34826 11.1461C1.34826 10.7737 1.04644 10.4719 0.67413 10.4719C0.301818 10.4719 0 10.7737 0 11.1461C0 11.5184 0.301818 11.8202 0.67413 11.8202Z" fill="#39393E"/>
<path d="M3.29229 11.8202C3.66461 11.8202 3.96642 11.5184 3.96642 11.1461C3.96642 10.7737 3.66461 10.4719 3.29229 10.4719C2.91998 10.4719 2.61816 10.7737 2.61816 11.1461C2.61816 11.5184 2.91998 11.8202 3.29229 11.8202Z" fill="#39393E"/>
<path d="M4.60113 11.8202C4.97344 11.8202 5.27526 11.5184 5.27526 11.1461C5.27526 10.7737 4.97344 10.4719 4.60113 10.4719C4.22882 10.4719 3.927 10.7737 3.927 11.1461C3.927 11.5184 4.22882 11.8202 4.60113 11.8202Z" fill="#39393E"/>
<path d="M5.90997 11.8202C6.28228 11.8202 6.5841 11.5184 6.5841 11.1461C6.5841 10.7737 6.28228 10.4719 5.90997 10.4719C5.53766 10.4719 5.23584 10.7737 5.23584 11.1461C5.23584 11.5184 5.53766 11.8202 5.90997 11.8202Z" fill="#39393E"/>
<path d="M7.21905 11.8202C7.59136 11.8202 7.89318 11.5184 7.89318 11.1461C7.89318 10.7737 7.59136 10.4719 7.21905 10.4719C6.84674 10.4719 6.54492 10.7737 6.54492 11.1461C6.54492 11.5184 6.84674 11.8202 7.21905 11.8202Z" fill="#39393E"/>
<path d="M8.52813 11.8202C8.90045 11.8202 9.20226 11.5184 9.20226 11.1461C9.20226 10.7737 8.90045 10.4719 8.52813 10.4719C8.15582 10.4719 7.854 10.7737 7.854 11.1461C7.854 11.5184 8.15582 11.8202 8.52813 11.8202Z" fill="#39393E"/>
<path d="M16.3821 11.8202C16.7544 11.8202 17.0563 11.5184 17.0563 11.1461C17.0563 10.7737 16.7544 10.4719 16.3821 10.4719C16.0098 10.4719 15.708 10.7737 15.708 11.1461C15.708 11.5184 16.0098 11.8202 16.3821 11.8202Z" fill="#39393E"/>
<path d="M22.9271 11.8202C23.2994 11.8202 23.6012 11.5184 23.6012 11.1461C23.6012 10.7737 23.2994 10.4719 22.9271 10.4719C22.5547 10.4719 22.2529 10.7737 22.2529 11.1461C22.2529 11.5184 22.5547 11.8202 22.9271 11.8202Z" fill="#39393E"/>
<path d="M25.5447 11.8202C25.917 11.8202 26.2189 11.5184 26.2189 11.1461C26.2189 10.7737 25.917 10.4719 25.5447 10.4719C25.1724 10.4719 24.8706 10.7737 24.8706 11.1461C24.8706 11.5184 25.1724 11.8202 25.5447 11.8202Z" fill="#39393E"/>
<path d="M29.472 11.8202C29.8443 11.8202 30.1461 11.5184 30.1461 11.1461C30.1461 10.7737 29.8443 10.4719 29.472 10.4719C29.0997 10.4719 28.7979 10.7737 28.7979 11.1461C28.7979 11.5184 29.0997 11.8202 29.472 11.8202Z" fill="#39393E"/>
<path d="M30.7811 11.8202C31.1534 11.8202 31.4552 11.5184 31.4552 11.1461C31.4552 10.7737 31.1534 10.4719 30.7811 10.4719C30.4088 10.4719 30.1069 10.7737 30.1069 11.1461C30.1069 11.5184 30.4088 11.8202 30.7811 11.8202Z" fill="#39393E"/>
<path d="M32.0899 11.8202C32.4622 11.8202 32.764 11.5184 32.764 11.1461C32.764 10.7737 32.4622 10.4719 32.0899 10.4719C31.7176 10.4719 31.4158 10.7737 31.4158 11.1461C31.4158 11.5184 31.7176 11.8202 32.0899 11.8202Z" fill="#39393E"/>
<path d="M33.399 11.8202C33.7713 11.8202 34.0731 11.5184 34.0731 11.1461C34.0731 10.7737 33.7713 10.4719 33.399 10.4719C33.0267 10.4719 32.7249 10.7737 32.7249 11.1461C32.7249 11.5184 33.0267 11.8202 33.399 11.8202Z" fill="#39393E"/>
<path d="M34.7078 11.8202C35.0801 11.8202 35.382 11.5184 35.382 11.1461C35.382 10.7737 35.0801 10.4719 34.7078 10.4719C34.3355 10.4719 34.0337 10.7737 34.0337 11.1461C34.0337 11.5184 34.3355 11.8202 34.7078 11.8202Z" fill="#39393E"/>
<path d="M3.29229 13.1293C3.66461 13.1293 3.96642 12.8274 3.96642 12.4551C3.96642 12.0828 3.66461 11.781 3.29229 11.781C2.91998 11.781 2.61816 12.0828 2.61816 12.4551C2.61816 12.8274 2.91998 13.1293 3.29229 13.1293Z" fill="#39393E"/>
<path d="M4.60113 13.1291C4.97344 13.1291 5.27526 12.8273 5.27526 12.455C5.27526 12.0827 4.97344 11.7809 4.60113 11.7809C4.22882 11.7809 3.927 12.0827 3.927 12.455C3.927 12.8273 4.22882 13.1291 4.60113 13.1291Z" fill="#39393E"/>
<path d="M5.90997 13.1293C6.28228 13.1293 6.5841 12.8274 6.5841 12.4551C6.5841 12.0828 6.28228 11.781 5.90997 11.781C5.53766 11.781 5.23584 12.0828 5.23584 12.4551C5.23584 12.8274 5.53766 13.1293 5.90997 13.1293Z" fill="#39393E"/>
<path d="M7.21905 13.1293C7.59136 13.1293 7.89318 12.8274 7.89318 12.4551C7.89318 12.0828 7.59136 11.781 7.21905 11.781C6.84674 11.781 6.54492 12.0828 6.54492 12.4551C6.54492 12.8274 6.84674 13.1293 7.21905 13.1293Z" fill="#39393E"/>
<path d="M13.764 13.1293C14.1363 13.1293 14.4381 12.8274 14.4381 12.4551C14.4381 12.0828 14.1363 11.781 13.764 11.781C13.3917 11.781 13.0898 12.0828 13.0898 12.4551C13.0898 12.8274 13.3917 13.1293 13.764 13.1293Z" fill="#39393E"/>
<path d="M15.0731 13.1293C15.4454 13.1293 15.7472 12.8274 15.7472 12.4551C15.7472 12.0828 15.4454 11.781 15.0731 11.781C14.7007 11.781 14.3989 12.0828 14.3989 12.4551C14.3989 12.8274 14.7007 13.1293 15.0731 13.1293Z" fill="#39393E"/>
<path d="M17.691 13.1291C18.0633 13.1291 18.3651 12.8273 18.3651 12.455C18.3651 12.0827 18.0633 11.7809 17.691 11.7809C17.3187 11.7809 17.0168 12.0827 17.0168 12.455C17.0168 12.8273 17.3187 13.1291 17.691 13.1291Z" fill="#39393E"/>
<path d="M19.0001 13.1291C19.3724 13.1291 19.6742 12.8273 19.6742 12.455C19.6742 12.0827 19.3724 11.7809 19.0001 11.7809C18.6277 11.7809 18.3259 12.0827 18.3259 12.455C18.3259 12.8273 18.6277 13.1291 19.0001 13.1291Z" fill="#39393E"/>
<path d="M20.3089 13.1293C20.6812 13.1293 20.983 12.8274 20.983 12.4551C20.983 12.0828 20.6812 11.781 20.3089 11.781C19.9366 11.781 19.6348 12.0828 19.6348 12.4551C19.6348 12.8274 19.9366 13.1293 20.3089 13.1293Z" fill="#39393E"/>
<path d="M25.5447 13.1291C25.917 13.1291 26.2189 12.8273 26.2189 12.455C26.2189 12.0827 25.917 11.7809 25.5447 11.7809C25.1724 11.7809 24.8706 12.0827 24.8706 12.455C24.8706 12.8273 25.1724 13.1291 25.5447 13.1291Z" fill="#39393E"/>
<path d="M26.8538 13.1293C27.2261 13.1293 27.5279 12.8274 27.5279 12.4551C27.5279 12.0828 27.2261 11.781 26.8538 11.781C26.4815 11.781 26.1797 12.0828 26.1797 12.4551C26.1797 12.8274 26.4815 13.1293 26.8538 13.1293Z" fill="#39393E"/>
<path d="M29.472 13.1293C29.8443 13.1293 30.1461 12.8274 30.1461 12.4551C30.1461 12.0828 29.8443 11.781 29.472 11.781C29.0997 11.781 28.7979 12.0828 28.7979 12.4551C28.7979 12.8274 29.0997 13.1293 29.472 13.1293Z" fill="#39393E"/>
<path d="M30.7811 13.1293C31.1534 13.1293 31.4552 12.8274 31.4552 12.4551C31.4552 12.0828 31.1534 11.781 30.7811 11.781C30.4088 11.781 30.1069 12.0828 30.1069 12.4551C30.1069 12.8274 30.4088 13.1293 30.7811 13.1293Z" fill="#39393E"/>
<path d="M32.0899 13.1293C32.4622 13.1293 32.764 12.8274 32.764 12.4551C32.764 12.0828 32.4622 11.781 32.0899 11.781C31.7176 11.781 31.4158 12.0828 31.4158 12.4551C31.4158 12.8274 31.7176 13.1293 32.0899 13.1293Z" fill="#39393E"/>
<path d="M37.326 13.1293C37.6983 13.1293 38.0001 12.8274 38.0001 12.4551C38.0001 12.0828 37.6983 11.781 37.326 11.781C36.9537 11.781 36.6519 12.0828 36.6519 12.4551C36.6519 12.8274 36.9537 13.1293 37.326 13.1293Z" fill="#39393E"/>
<path d="M1.98321 14.4381C2.35552 14.4381 2.65734 14.1363 2.65734 13.764C2.65734 13.3917 2.35552 13.0898 1.98321 13.0898C1.6109 13.0898 1.30908 13.3917 1.30908 13.764C1.30908 14.1363 1.6109 14.4381 1.98321 14.4381Z" fill="#39393E"/>
<path d="M4.60113 14.4382C4.97344 14.4382 5.27526 14.1364 5.27526 13.7641C5.27526 13.3918 4.97344 13.09 4.60113 13.09C4.22882 13.09 3.927 13.3918 3.927 13.7641C3.927 14.1364 4.22882 14.4382 4.60113 14.4382Z" fill="#39393E"/>
<path d="M5.90997 14.4381C6.28228 14.4381 6.5841 14.1363 6.5841 13.764C6.5841 13.3917 6.28228 13.0898 5.90997 13.0898C5.53766 13.0898 5.23584 13.3917 5.23584 13.764C5.23584 14.1363 5.53766 14.4381 5.90997 14.4381Z" fill="#39393E"/>
<path d="M7.21905 14.4381C7.59136 14.4381 7.89318 14.1363 7.89318 13.764C7.89318 13.3917 7.59136 13.0898 7.21905 13.0898C6.84674 13.0898 6.54492 13.3917 6.54492 13.764C6.54492 14.1363 6.84674 14.4381 7.21905 14.4381Z" fill="#39393E"/>
<path d="M8.52813 14.4381C8.90045 14.4381 9.20226 14.1363 9.20226 13.764C9.20226 13.3917 8.90045 13.0898 8.52813 13.0898C8.15582 13.0898 7.854 13.3917 7.854 13.764C7.854 14.1363 8.15582 14.4381 8.52813 14.4381Z" fill="#39393E"/>
<path d="M9.83722 14.4381C10.2095 14.4381 10.5113 14.1363 10.5113 13.764C10.5113 13.3917 10.2095 13.0898 9.83722 13.0898C9.4649 13.0898 9.16309 13.3917 9.16309 13.764C9.16309 14.1363 9.4649 14.4381 9.83722 14.4381Z" fill="#39393E"/>
<path d="M12.4549 14.4381C12.8272 14.4381 13.129 14.1363 13.129 13.764C13.129 13.3917 12.8272 13.0898 12.4549 13.0898C12.0826 13.0898 11.7808 13.3917 11.7808 13.764C11.7808 14.1363 12.0826 14.4381 12.4549 14.4381Z" fill="#39393E"/>
<path d="M15.0731 14.4381C15.4454 14.4381 15.7472 14.1363 15.7472 13.764C15.7472 13.3917 15.4454 13.0898 15.0731 13.0898C14.7007 13.0898 14.3989 13.3917 14.3989 13.764C14.3989 14.1363 14.7007 14.4381 15.0731 14.4381Z" fill="#39393E"/>
<path d="M16.3821 14.4381C16.7544 14.4381 17.0563 14.1363 17.0563 13.764C17.0563 13.3917 16.7544 13.0898 16.3821 13.0898C16.0098 13.0898 15.708 13.3917 15.708 13.764C15.708 14.1363 16.0098 14.4381 16.3821 14.4381Z" fill="#39393E"/>
<path d="M17.691 14.4381C18.0633 14.4381 18.3651 14.1363 18.3651 13.764C18.3651 13.3917 18.0633 13.0898 17.691 13.0898C17.3187 13.0898 17.0168 13.3917 17.0168 13.764C17.0168 14.1363 17.3187 14.4381 17.691 14.4381Z" fill="#39393E"/>
<path d="M19.0001 14.4382C19.3724 14.4382 19.6742 14.1364 19.6742 13.7641C19.6742 13.3918 19.3724 13.09 19.0001 13.09C18.6277 13.09 18.3259 13.3918 18.3259 13.7641C18.3259 14.1364 18.6277 14.4382 19.0001 14.4382Z" fill="#39393E"/>
<path d="M20.3089 14.4381C20.6812 14.4381 20.983 14.1363 20.983 13.764C20.983 13.3917 20.6812 13.0898 20.3089 13.0898C19.9366 13.0898 19.6348 13.3917 19.6348 13.764C19.6348 14.1363 19.9366 14.4381 20.3089 14.4381Z" fill="#39393E"/>
<path d="M24.2359 14.4381C24.6082 14.4381 24.91 14.1363 24.91 13.764C24.91 13.3917 24.6082 13.0898 24.2359 13.0898C23.8636 13.0898 23.5618 13.3917 23.5618 13.764C23.5618 14.1363 23.8636 14.4381 24.2359 14.4381Z" fill="#39393E"/>
<path d="M26.8538 14.4381C27.2261 14.4381 27.5279 14.1363 27.5279 13.764C27.5279 13.3917 27.2261 13.0898 26.8538 13.0898C26.4815 13.0898 26.1797 13.3917 26.1797 13.764C26.1797 14.1363 26.4815 14.4381 26.8538 14.4381Z" fill="#39393E"/>
<path d="M28.1629 14.4381C28.5352 14.4381 28.837 14.1363 28.837 13.764C28.837 13.3917 28.5352 13.0898 28.1629 13.0898C27.7906 13.0898 27.4888 13.3917 27.4888 13.764C27.4888 14.1363 27.7906 14.4381 28.1629 14.4381Z" fill="#39393E"/>
<path d="M0.67413 15.7472C1.04644 15.7472 1.34826 15.4454 1.34826 15.0731C1.34826 14.7007 1.04644 14.3989 0.67413 14.3989C0.301818 14.3989 0 14.7007 0 15.0731C0 15.4454 0.301818 15.7472 0.67413 15.7472Z" fill="#39393E"/>
<path d="M7.21905 15.7472C7.59136 15.7472 7.89318 15.4454 7.89318 15.0731C7.89318 14.7007 7.59136 14.3989 7.21905 14.3989C6.84674 14.3989 6.54492 14.7007 6.54492 15.0731C6.54492 15.4454 6.84674 15.7472 7.21905 15.7472Z" fill="#39393E"/>
<path d="M9.83722 15.7472C10.2095 15.7472 10.5113 15.4454 10.5113 15.0731C10.5113 14.7007 10.2095 14.3989 9.83722 14.3989C9.4649 14.3989 9.16309 14.7007 9.16309 15.0731C9.16309 15.4454 9.4649 15.7472 9.83722 15.7472Z" fill="#39393E"/>
<path d="M11.1461 15.7472C11.5184 15.7472 11.8202 15.4454 11.8202 15.0731C11.8202 14.7007 11.5184 14.3989 11.1461 14.3989C10.7737 14.3989 10.4719 14.7007 10.4719 15.0731C10.4719 15.4454 10.7737 15.7472 11.1461 15.7472Z" fill="#39393E"/>
<path d="M12.4549 15.7472C12.8272 15.7472 13.129 15.4454 13.129 15.0731C13.129 14.7007 12.8272 14.3989 12.4549 14.3989C12.0826 14.3989 11.7808 14.7007 11.7808 15.0731C11.7808 15.4454 12.0826 15.7472 12.4549 15.7472Z" fill="#39393E"/>
<path d="M15.0731 15.7472C15.4454 15.7472 15.7472 15.4454 15.7472 15.0731C15.7472 14.7007 15.4454 14.3989 15.0731 14.3989C14.7007 14.3989 14.3989 14.7007 14.3989 15.0731C14.3989 15.4454 14.7007 15.7472 15.0731 15.7472Z" fill="#39393E"/>
<path d="M17.691 15.7472C18.0633 15.7472 18.3651 15.4454 18.3651 15.0731C18.3651 14.7007 18.0633 14.3989 17.691 14.3989C17.3187 14.3989 17.0168 14.7007 17.0168 15.0731C17.0168 15.4454 17.3187 15.7472 17.691 15.7472Z" fill="#39393E"/>
<path d="M20.3089 15.7472C20.6812 15.7472 20.983 15.4454 20.983 15.0731C20.983 14.7007 20.6812 14.3989 20.3089 14.3989C19.9366 14.3989 19.6348 14.7007 19.6348 15.0731C19.6348 15.4454 19.9366 15.7472 20.3089 15.7472Z" fill="#39393E"/>
<path d="M21.618 15.7472C21.9903 15.7472 22.2921 15.4454 22.2921 15.0731C22.2921 14.7007 21.9903 14.3989 21.618 14.3989C21.2457 14.3989 20.9438 14.7007 20.9438 15.0731C20.9438 15.4454 21.2457 15.7472 21.618 15.7472Z" fill="#39393E"/>
<path d="M24.2359 15.7472C24.6082 15.7472 24.91 15.4454 24.91 15.0731C24.91 14.7007 24.6082 14.3989 24.2359 14.3989C23.8636 14.3989 23.5618 14.7007 23.5618 15.0731C23.5618 15.4454 23.8636 15.7472 24.2359 15.7472Z" fill="#39393E"/>
<path d="M25.5447 15.7472C25.917 15.7472 26.2189 15.4454 26.2189 15.0731C26.2189 14.7007 25.917 14.3989 25.5447 14.3989C25.1724 14.3989 24.8706 14.7007 24.8706 15.0731C24.8706 15.4454 25.1724 15.7472 25.5447 15.7472Z" fill="#39393E"/>
<path d="M28.1629 15.7472C28.5352 15.7472 28.837 15.4454 28.837 15.0731C28.837 14.7007 28.5352 14.3989 28.1629 14.3989C27.7906 14.3989 27.4888 14.7007 27.4888 15.0731C27.4888 15.4454 27.7906 15.7472 28.1629 15.7472Z" fill="#39393E"/>
<path d="M30.7811 15.7472C31.1534 15.7472 31.4552 15.4454 31.4552 15.0731C31.4552 14.7007 31.1534 14.3989 30.7811 14.3989C30.4088 14.3989 30.1069 14.7007 30.1069 15.0731C30.1069 15.4454 30.4088 15.7472 30.7811 15.7472Z" fill="#39393E"/>
<path d="M33.399 15.7472C33.7713 15.7472 34.0731 15.4454 34.0731 15.0731C34.0731 14.7007 33.7713 14.3989 33.399 14.3989C33.0267 14.3989 32.7249 14.7007 32.7249 15.0731C32.7249 15.4454 33.0267 15.7472 33.399 15.7472Z" fill="#39393E"/>
<path d="M36.0169 15.7472C36.3892 15.7472 36.691 15.4454 36.691 15.0731C36.691 14.7007 36.3892 14.3989 36.0169 14.3989C35.6446 14.3989 35.3428 14.7007 35.3428 15.0731C35.3428 15.4454 35.6446 15.7472 36.0169 15.7472Z" fill="#39393E"/>
<path d="M0.67413 17.0561C1.04644 17.0561 1.34826 16.7543 1.34826 16.382C1.34826 16.0097 1.04644 15.7079 0.67413 15.7079C0.301818 15.7079 0 16.0097 0 16.382C0 16.7543 0.301818 17.0561 0.67413 17.0561Z" fill="#39393E"/>
<path d="M4.60113 17.056C4.97344 17.056 5.27526 16.7542 5.27526 16.3819C5.27526 16.0096 4.97344 15.7078 4.60113 15.7078C4.22882 15.7078 3.927 16.0096 3.927 16.3819C3.927 16.7542 4.22882 17.056 4.60113 17.056Z" fill="#39393E"/>
<path d="M7.21905 17.0561C7.59136 17.0561 7.89318 16.7543 7.89318 16.382C7.89318 16.0097 7.59136 15.7079 7.21905 15.7079C6.84674 15.7079 6.54492 16.0097 6.54492 16.382C6.54492 16.7543 6.84674 17.0561 7.21905 17.0561Z" fill="#39393E"/>
<path d="M8.52813 17.0561C8.90045 17.0561 9.20226 16.7543 9.20226 16.382C9.20226 16.0097 8.90045 15.7079 8.52813 15.7079C8.15582 15.7079 7.854 16.0097 7.854 16.382C7.854 16.7543 8.15582 17.0561 8.52813 17.0561Z" fill="#39393E"/>
<path d="M12.4549 17.0561C12.8272 17.0561 13.129 16.7543 13.129 16.382C13.129 16.0097 12.8272 15.7079 12.4549 15.7079C12.0826 15.7079 11.7808 16.0097 11.7808 16.382C11.7808 16.7543 12.0826 17.0561 12.4549 17.0561Z" fill="#39393E"/>
<path d="M13.764 17.0561C14.1363 17.0561 14.4381 16.7543 14.4381 16.382C14.4381 16.0097 14.1363 15.7079 13.764 15.7079C13.3917 15.7079 13.0898 16.0097 13.0898 16.382C13.0898 16.7543 13.3917 17.0561 13.764 17.0561Z" fill="#39393E"/>
<path d="M15.0731 17.0561C15.4454 17.0561 15.7472 16.7543 15.7472 16.382C15.7472 16.0097 15.4454 15.7079 15.0731 15.7079C14.7007 15.7079 14.3989 16.0097 14.3989 16.382C14.3989 16.7543 14.7007 17.0561 15.0731 17.0561Z" fill="#39393E"/>
<path d="M19.0001 17.056C19.3724 17.056 19.6742 16.7542 19.6742 16.3819C19.6742 16.0096 19.3724 15.7078 19.0001 15.7078C18.6277 15.7078 18.3259 16.0096 18.3259 16.3819C18.3259 16.7542 18.6277 17.056 19.0001 17.056Z" fill="#39393E"/>
<path d="M22.9271 17.0561C23.2994 17.0561 23.6012 16.7543 23.6012 16.382C23.6012 16.0097 23.2994 15.7079 22.9271 15.7079C22.5547 15.7079 22.2529 16.0097 22.2529 16.382C22.2529 16.7543 22.5547 17.0561 22.9271 17.0561Z" fill="#39393E"/>
<path d="M33.399 17.056C33.7713 17.056 34.0731 16.7542 34.0731 16.3819C34.0731 16.0096 33.7713 15.7078 33.399 15.7078C33.0267 15.7078 32.7249 16.0096 32.7249 16.3819C32.7249 16.7542 33.0267 17.056 33.399 17.056Z" fill="#39393E"/>
<path d="M34.7078 17.0561C35.0801 17.0561 35.382 16.7543 35.382 16.382C35.382 16.0097 35.0801 15.7079 34.7078 15.7079C34.3355 15.7079 34.0337 16.0097 34.0337 16.382C34.0337 16.7543 34.3355 17.0561 34.7078 17.0561Z" fill="#39393E"/>
<path d="M0.67413 18.3651C1.04644 18.3651 1.34826 18.0633 1.34826 17.691C1.34826 17.3187 1.04644 17.0168 0.67413 17.0168C0.301818 17.0168 0 17.3187 0 17.691C0 18.0633 0.301818 18.3651 0.67413 18.3651Z" fill="#39393E"/>
<path d="M4.60113 18.3651C4.97344 18.3651 5.27526 18.0633 5.27526 17.691C5.27526 17.3187 4.97344 17.0168 4.60113 17.0168C4.22882 17.0168 3.927 17.3187 3.927 17.691C3.927 18.0633 4.22882 18.3651 4.60113 18.3651Z" fill="#39393E"/>
<path d="M5.90997 18.3651C6.28228 18.3651 6.5841 18.0633 6.5841 17.691C6.5841 17.3187 6.28228 17.0168 5.90997 17.0168C5.53766 17.0168 5.23584 17.3187 5.23584 17.691C5.23584 18.0633 5.53766 18.3651 5.90997 18.3651Z" fill="#39393E"/>
<path d="M9.83722 18.3651C10.2095 18.3651 10.5113 18.0633 10.5113 17.691C10.5113 17.3187 10.2095 17.0168 9.83722 17.0168C9.4649 17.0168 9.16309 17.3187 9.16309 17.691C9.16309 18.0633 9.4649 18.3651 9.83722 18.3651Z" fill="#39393E"/>
<path d="M12.4549 18.3651C12.8272 18.3651 13.129 18.0633 13.129 17.691C13.129 17.3187 12.8272 17.0168 12.4549 17.0168C12.0826 17.0168 11.7808 17.3187 11.7808 17.691C11.7808 18.0633 12.0826 18.3651 12.4549 18.3651Z" fill="#39393E"/>
<path d="M13.764 18.3651C14.1363 18.3651 14.4381 18.0633 14.4381 17.691C14.4381 17.3187 14.1363 17.0168 13.764 17.0168C13.3917 17.0168 13.0898 17.3187 13.0898 17.691C13.0898 18.0633 13.3917 18.3651 13.764 18.3651Z" fill="#39393E"/>
<path d="M21.618 18.3651C21.9903 18.3651 22.2921 18.0633 22.2921 17.691C22.2921 17.3187 21.9903 17.0168 21.618 17.0168C21.2457 17.0168 20.9438 17.3187 20.9438 17.691C20.9438 18.0633 21.2457 18.3651 21.618 18.3651Z" fill="#39393E"/>
<path d="M25.5447 18.3651C25.917 18.3651 26.2189 18.0633 26.2189 17.691C26.2189 17.3187 25.917 17.0168 25.5447 17.0168C25.1724 17.0168 24.8706 17.3187 24.8706 17.691C24.8706 18.0633 25.1724 18.3651 25.5447 18.3651Z" fill="#39393E"/>
<path d="M26.8538 18.3651C27.2261 18.3651 27.5279 18.0633 27.5279 17.691C27.5279 17.3187 27.2261 17.0168 26.8538 17.0168C26.4815 17.0168 26.1797 17.3187 26.1797 17.691C26.1797 18.0633 26.4815 18.3651 26.8538 18.3651Z" fill="#39393E"/>
<path d="M28.1629 18.3651C28.5352 18.3651 28.837 18.0633 28.837 17.691C28.837 17.3187 28.5352 17.0168 28.1629 17.0168C27.7906 17.0168 27.4888 17.3187 27.4888 17.691C27.4888 18.0633 27.7906 18.3651 28.1629 18.3651Z" fill="#39393E"/>
<path d="M29.472 18.3651C29.8443 18.3651 30.1461 18.0633 30.1461 17.691C30.1461 17.3187 29.8443 17.0168 29.472 17.0168C29.0997 17.0168 28.7979 17.3187 28.7979 17.691C28.7979 18.0633 29.0997 18.3651 29.472 18.3651Z" fill="#39393E"/>
<path d="M32.0899 18.3651C32.4622 18.3651 32.764 18.0633 32.764 17.691C32.764 17.3187 32.4622 17.0168 32.0899 17.0168C31.7176 17.0168 31.4158 17.3187 31.4158 17.691C31.4158 18.0633 31.7176 18.3651 32.0899 18.3651Z" fill="#39393E"/>
<path d="M37.326 18.3651C37.6983 18.3651 38.0001 18.0633 38.0001 17.691C38.0001 17.3187 37.6983 17.0168 37.326 17.0168C36.9537 17.0168 36.6519 17.3187 36.6519 17.691C36.6519 18.0633 36.9537 18.3651 37.326 18.3651Z" fill="#39393E"/>
<path d="M5.90997 19.6742C6.28228 19.6742 6.5841 19.3724 6.5841 19.0001C6.5841 18.6277 6.28228 18.3259 5.90997 18.3259C5.53766 18.3259 5.23584 18.6277 5.23584 19.0001C5.23584 19.3724 5.53766 19.6742 5.90997 19.6742Z" fill="#39393E"/>
<path d="M7.21905 19.6742C7.59136 19.6742 7.89318 19.3724 7.89318 19.0001C7.89318 18.6277 7.59136 18.3259 7.21905 18.3259C6.84674 18.3259 6.54492 18.6277 6.54492 19.0001C6.54492 19.3724 6.84674 19.6742 7.21905 19.6742Z" fill="#39393E"/>
<path d="M8.52813 19.6742C8.90045 19.6742 9.20226 19.3724 9.20226 19.0001C9.20226 18.6277 8.90045 18.3259 8.52813 18.3259C8.15582 18.3259 7.854 18.6277 7.854 19.0001C7.854 19.3724 8.15582 19.6742 8.52813 19.6742Z" fill="#39393E"/>
<path d="M9.83722 19.6742C10.2095 19.6742 10.5113 19.3724 10.5113 19.0001C10.5113 18.6277 10.2095 18.3259 9.83722 18.3259C9.4649 18.3259 9.16309 18.6277 9.16309 19.0001C9.16309 19.3724 9.4649 19.6742 9.83722 19.6742Z" fill="#39393E"/>
<path d="M16.3821 19.6742C16.7544 19.6742 17.0563 19.3724 17.0563 19.0001C17.0563 18.6277 16.7544 18.3259 16.3821 18.3259C16.0098 18.3259 15.708 18.6277 15.708 19.0001C15.708 19.3724 16.0098 19.6742 16.3821 19.6742Z" fill="#39393E"/>
<path d="M20.3089 19.6742C20.6812 19.6742 20.983 19.3724 20.983 19.0001C20.983 18.6277 20.6812 18.3259 20.3089 18.3259C19.9366 18.3259 19.6348 18.6277 19.6348 19.0001C19.6348 19.3724 19.9366 19.6742 20.3089 19.6742Z" fill="#39393E"/>
<path d="M24.2359 19.6741C24.6082 19.6741 24.91 19.3722 24.91 18.9999C24.91 18.6276 24.6082 18.3258 24.2359 18.3258C23.8636 18.3258 23.5618 18.6276 23.5618 18.9999C23.5618 19.3722 23.8636 19.6741 24.2359 19.6741Z" fill="#39393E"/>
<path d="M28.1629 19.6742C28.5352 19.6742 28.837 19.3724 28.837 19.0001C28.837 18.6277 28.5352 18.3259 28.1629 18.3259C27.7906 18.3259 27.4888 18.6277 27.4888 19.0001C27.4888 19.3724 27.7906 19.6742 28.1629 19.6742Z" fill="#39393E"/>
<path d="M29.472 19.6742C29.8443 19.6742 30.1461 19.3724 30.1461 19.0001C30.1461 18.6277 29.8443 18.3259 29.472 18.3259C29.0997 18.3259 28.7979 18.6277 28.7979 19.0001C28.7979 19.3724 29.0997 19.6742 29.472 19.6742Z" fill="#39393E"/>
<path d="M30.7811 19.6742C31.1534 19.6742 31.4552 19.3724 31.4552 19.0001C31.4552 18.6277 31.1534 18.3259 30.7811 18.3259C30.4088 18.3259 30.1069 18.6277 30.1069 19.0001C30.1069 19.3724 30.4088 19.6742 30.7811 19.6742Z" fill="#39393E"/>
<path d="M33.399 19.6742C33.7713 19.6742 34.0731 19.3724 34.0731 19.0001C34.0731 18.6277 33.7713 18.3259 33.399 18.3259C33.0267 18.3259 32.7249 18.6277 32.7249 19.0001C32.7249 19.3724 33.0267 19.6742 33.399 19.6742Z" fill="#39393E"/>
<path d="M34.7078 19.6742C35.0801 19.6742 35.382 19.3724 35.382 19.0001C35.382 18.6277 35.0801 18.3259 34.7078 18.3259C34.3355 18.3259 34.0337 18.6277 34.0337 19.0001C34.0337 19.3724 34.3355 19.6742 34.7078 19.6742Z" fill="#39393E"/>
<path d="M0.67413 20.9831C1.04644 20.9831 1.34826 20.6813 1.34826 20.309C1.34826 19.9367 1.04644 19.6349 0.67413 19.6349C0.301818 19.6349 0 19.9367 0 20.309C0 20.6813 0.301818 20.9831 0.67413 20.9831Z" fill="#39393E"/>
<path d="M5.90997 20.9831C6.28228 20.9831 6.5841 20.6813 6.5841 20.309C6.5841 19.9367 6.28228 19.6349 5.90997 19.6349C5.53766 19.6349 5.23584 19.9367 5.23584 20.309C5.23584 20.6813 5.53766 20.9831 5.90997 20.9831Z" fill="#39393E"/>
<path d="M9.83722 20.9831C10.2095 20.9831 10.5113 20.6813 10.5113 20.309C10.5113 19.9367 10.2095 19.6349 9.83722 19.6349C9.4649 19.6349 9.16309 19.9367 9.16309 20.309C9.16309 20.6813 9.4649 20.9831 9.83722 20.9831Z" fill="#39393E"/>
<path d="M11.1461 20.9831C11.5184 20.9831 11.8202 20.6813 11.8202 20.309C11.8202 19.9367 11.5184 19.6349 11.1461 19.6349C10.7737 19.6349 10.4719 19.9367 10.4719 20.309C10.4719 20.6813 10.7737 20.9831 11.1461 20.9831Z" fill="#39393E"/>
<path d="M12.4549 20.9831C12.8272 20.9831 13.129 20.6813 13.129 20.309C13.129 19.9367 12.8272 19.6349 12.4549 19.6349C12.0826 19.6349 11.7808 19.9367 11.7808 20.309C11.7808 20.6813 12.0826 20.9831 12.4549 20.9831Z" fill="#39393E"/>
<path d="M15.0731 20.9831C15.4454 20.9831 15.7472 20.6813 15.7472 20.309C15.7472 19.9367 15.4454 19.6349 15.0731 19.6349C14.7007 19.6349 14.3989 19.9367 14.3989 20.309C14.3989 20.6813 14.7007 20.9831 15.0731 20.9831Z" fill="#39393E"/>
<path d="M19.0001 20.983C19.3724 20.983 19.6742 20.6812 19.6742 20.3089C19.6742 19.9366 19.3724 19.6348 19.0001 19.6348C18.6277 19.6348 18.3259 19.9366 18.3259 20.3089C18.3259 20.6812 18.6277 20.983 19.0001 20.983Z" fill="#39393E"/>
<path d="M20.3089 20.9831C20.6812 20.9831 20.983 20.6813 20.983 20.309C20.983 19.9367 20.6812 19.6349 20.3089 19.6349C19.9366 19.6349 19.6348 19.9367 19.6348 20.309C19.6348 20.6813 19.9366 20.9831 20.3089 20.9831Z" fill="#39393E"/>
<path d="M21.618 20.9831C21.9903 20.9831 22.2921 20.6813 22.2921 20.309C22.2921 19.9367 21.9903 19.6349 21.618 19.6349C21.2457 19.6349 20.9438 19.9367 20.9438 20.309C20.9438 20.6813 21.2457 20.9831 21.618 20.9831Z" fill="#39393E"/>
<path d="M24.2359 20.9833C24.6082 20.9833 24.91 20.6815 24.91 20.3091C24.91 19.9368 24.6082 19.635 24.2359 19.635C23.8636 19.635 23.5618 19.9368 23.5618 20.3091C23.5618 20.6815 23.8636 20.9833 24.2359 20.9833Z" fill="#39393E"/>
<path d="M25.5447 20.983C25.917 20.983 26.2189 20.6812 26.2189 20.3089C26.2189 19.9366 25.917 19.6348 25.5447 19.6348C25.1724 19.6348 24.8706 19.9366 24.8706 20.3089C24.8706 20.6812 25.1724 20.983 25.5447 20.983Z" fill="#39393E"/>
<path d="M26.8538 20.9831C27.2261 20.9831 27.5279 20.6813 27.5279 20.309C27.5279 19.9367 27.2261 19.6349 26.8538 19.6349C26.4815 19.6349 26.1797 19.9367 26.1797 20.309C26.1797 20.6813 26.4815 20.9831 26.8538 20.9831Z" fill="#39393E"/>
<path d="M30.7811 20.9831C31.1534 20.9831 31.4552 20.6813 31.4552 20.309C31.4552 19.9367 31.1534 19.6349 30.7811 19.6349C30.4088 19.6349 30.1069 19.9367 30.1069 20.309C30.1069 20.6813 30.4088 20.9831 30.7811 20.9831Z" fill="#39393E"/>
<path d="M32.0899 20.9831C32.4622 20.9831 32.764 20.6813 32.764 20.309C32.764 19.9367 32.4622 19.6349 32.0899 19.6349C31.7176 19.6349 31.4158 19.9367 31.4158 20.309C31.4158 20.6813 31.7176 20.9831 32.0899 20.9831Z" fill="#39393E"/>
<path d="M36.0169 20.9831C36.3892 20.9831 36.691 20.6813 36.691 20.309C36.691 19.9367 36.3892 19.6349 36.0169 19.6349C35.6446 19.6349 35.3428 19.9367 35.3428 20.309C35.3428 20.6813 35.6446 20.9831 36.0169 20.9831Z" fill="#39393E"/>
<path d="M0.67413 22.2921C1.04644 22.2921 1.34826 21.9903 1.34826 21.618C1.34826 21.2457 1.04644 20.9438 0.67413 20.9438C0.301818 20.9438 0 21.2457 0 21.618C0 21.9903 0.301818 22.2921 0.67413 22.2921Z" fill="#39393E"/>
<path d="M3.29229 22.2921C3.66461 22.2921 3.96642 21.9903 3.96642 21.618C3.96642 21.2457 3.66461 20.9438 3.29229 20.9438C2.91998 20.9438 2.61816 21.2457 2.61816 21.618C2.61816 21.9903 2.91998 22.2921 3.29229 22.2921Z" fill="#39393E"/>
<path d="M4.60113 22.2921C4.97344 22.2921 5.27526 21.9903 5.27526 21.618C5.27526 21.2457 4.97344 20.9438 4.60113 20.9438C4.22882 20.9438 3.927 21.2457 3.927 21.618C3.927 21.9903 4.22882 22.2921 4.60113 22.2921Z" fill="#39393E"/>
<path d="M5.90997 22.2921C6.28228 22.2921 6.5841 21.9903 6.5841 21.618C6.5841 21.2457 6.28228 20.9438 5.90997 20.9438C5.53766 20.9438 5.23584 21.2457 5.23584 21.618C5.23584 21.9903 5.53766 22.2921 5.90997 22.2921Z" fill="#39393E"/>
<path d="M7.21905 22.2921C7.59136 22.2921 7.89318 21.9903 7.89318 21.618C7.89318 21.2457 7.59136 20.9438 7.21905 20.9438C6.84674 20.9438 6.54492 21.2457 6.54492 21.618C6.54492 21.9903 6.84674 22.2921 7.21905 22.2921Z" fill="#39393E"/>
<path d="M8.52813 22.2921C8.90045 22.2921 9.20226 21.9903 9.20226 21.618C9.20226 21.2457 8.90045 20.9438 8.52813 20.9438C8.15582 20.9438 7.854 21.2457 7.854 21.618C7.854 21.9903 8.15582 22.2921 8.52813 22.2921Z" fill="#39393E"/>
<path d="M9.83722 22.2921C10.2095 22.2921 10.5113 21.9903 10.5113 21.618C10.5113 21.2457 10.2095 20.9438 9.83722 20.9438C9.4649 20.9438 9.16309 21.2457 9.16309 21.618C9.16309 21.9903 9.4649 22.2921 9.83722 22.2921Z" fill="#39393E"/>
<path d="M11.1461 22.2921C11.5184 22.2921 11.8202 21.9903 11.8202 21.618C11.8202 21.2457 11.5184 20.9438 11.1461 20.9438C10.7737 20.9438 10.4719 21.2457 10.4719 21.618C10.4719 21.9903 10.7737 22.2921 11.1461 22.2921Z" fill="#39393E"/>
<path d="M12.4549 22.2921C12.8272 22.2921 13.129 21.9903 13.129 21.618C13.129 21.2457 12.8272 20.9438 12.4549 20.9438C12.0826 20.9438 11.7808 21.2457 11.7808 21.618C11.7808 21.9903 12.0826 22.2921 12.4549 22.2921Z" fill="#39393E"/>
<path d="M13.764 22.2921C14.1363 22.2921 14.4381 21.9903 14.4381 21.618C14.4381 21.2457 14.1363 20.9438 13.764 20.9438C13.3917 20.9438 13.0898 21.2457 13.0898 21.618C13.0898 21.9903 13.3917 22.2921 13.764 22.2921Z" fill="#39393E"/>
<path d="M15.0731 22.2921C15.4454 22.2921 15.7472 21.9903 15.7472 21.618C15.7472 21.2457 15.4454 20.9438 15.0731 20.9438C14.7007 20.9438 14.3989 21.2457 14.3989 21.618C14.3989 21.9903 14.7007 22.2921 15.0731 22.2921Z" fill="#39393E"/>
<path d="M16.3821 22.2921C16.7544 22.2921 17.0563 21.9903 17.0563 21.618C17.0563 21.2457 16.7544 20.9438 16.3821 20.9438C16.0098 20.9438 15.708 21.2457 15.708 21.618C15.708 21.9903 16.0098 22.2921 16.3821 22.2921Z" fill="#39393E"/>
<path d="M22.9271 22.2921C23.2994 22.2921 23.6012 21.9903 23.6012 21.618C23.6012 21.2457 23.2994 20.9438 22.9271 20.9438C22.5547 20.9438 22.2529 21.2457 22.2529 21.618C22.2529 21.9903 22.5547 22.2921 22.9271 22.2921Z" fill="#39393E"/>
<path d="M24.2359 22.2921C24.6082 22.2921 24.91 21.9903 24.91 21.618C24.91 21.2457 24.6082 20.9438 24.2359 20.9438C23.8636 20.9438 23.5618 21.2457 23.5618 21.618C23.5618 21.9903 23.8636 22.2921 24.2359 22.2921Z" fill="#39393E"/>
<path d="M25.5447 22.2921C25.917 22.2921 26.2189 21.9903 26.2189 21.618C26.2189 21.2457 25.917 20.9438 25.5447 20.9438C25.1724 20.9438 24.8706 21.2457 24.8706 21.618C24.8706 21.9903 25.1724 22.2921 25.5447 22.2921Z" fill="#39393E"/>
<path d="M30.7811 22.2921C31.1534 22.2921 31.4552 21.9903 31.4552 21.618C31.4552 21.2457 31.1534 20.9438 30.7811 20.9438C30.4088 20.9438 30.1069 21.2457 30.1069 21.618C30.1069 21.9903 30.4088 22.2921 30.7811 22.2921Z" fill="#39393E"/>
<path d="M33.399 22.2921C33.7713 22.2921 34.0731 21.9903 34.0731 21.618C34.0731 21.2457 33.7713 20.9438 33.399 20.9438C33.0267 20.9438 32.7249 21.2457 32.7249 21.618C32.7249 21.9903 33.0267 22.2921 33.399 22.2921Z" fill="#39393E"/>
<path d="M34.7078 22.2921C35.0801 22.2921 35.382 21.9903 35.382 21.618C35.382 21.2457 35.0801 20.9438 34.7078 20.9438C34.3355 20.9438 34.0337 21.2457 34.0337 21.618C34.0337 21.9903 34.3355 22.2921 34.7078 22.2921Z" fill="#39393E"/>
<path d="M0.67413 23.6012C1.04644 23.6012 1.34826 23.2994 1.34826 22.9271C1.34826 22.5547 1.04644 22.2529 0.67413 22.2529C0.301818 22.2529 0 22.5547 0 22.9271C0 23.2994 0.301818 23.6012 0.67413 23.6012Z" fill="#39393E"/>
<path d="M1.98321 23.6012C2.35552 23.6012 2.65734 23.2994 2.65734 22.9271C2.65734 22.5547 2.35552 22.2529 1.98321 22.2529C1.6109 22.2529 1.30908 22.5547 1.30908 22.9271C1.30908 23.2994 1.6109 23.6012 1.98321 23.6012Z" fill="#39393E"/>
<path d="M3.29229 23.6012C3.66461 23.6012 3.96642 23.2994 3.96642 22.9271C3.96642 22.5547 3.66461 22.2529 3.29229 22.2529C2.91998 22.2529 2.61816 22.5547 2.61816 22.9271C2.61816 23.2994 2.91998 23.6012 3.29229 23.6012Z" fill="#39393E"/>
<path d="M5.90997 23.6012C6.28228 23.6012 6.5841 23.2994 6.5841 22.9271C6.5841 22.5547 6.28228 22.2529 5.90997 22.2529C5.53766 22.2529 5.23584 22.5547 5.23584 22.9271C5.23584 23.2994 5.53766 23.6012 5.90997 23.6012Z" fill="#39393E"/>
<path d="M7.21905 23.6012C7.59136 23.6012 7.89318 23.2994 7.89318 22.9271C7.89318 22.5547 7.59136 22.2529 7.21905 22.2529C6.84674 22.2529 6.54492 22.5547 6.54492 22.9271C6.54492 23.2994 6.84674 23.6012 7.21905 23.6012Z" fill="#39393E"/>
<path d="M9.83722 23.6012C10.2095 23.6012 10.5113 23.2994 10.5113 22.9271C10.5113 22.5547 10.2095 22.2529 9.83722 22.2529C9.4649 22.2529 9.16309 22.5547 9.16309 22.9271C9.16309 23.2994 9.4649 23.6012 9.83722 23.6012Z" fill="#39393E"/>
<path d="M17.691 23.6011C18.0633 23.6011 18.3651 23.2992 18.3651 22.9269C18.3651 22.5546 18.0633 22.2528 17.691 22.2528C17.3187 22.2528 17.0168 22.5546 17.0168 22.9269C17.0168 23.2992 17.3187 23.6011 17.691 23.6011Z" fill="#39393E"/>
<path d="M19.0001 23.6012C19.3724 23.6012 19.6742 23.2994 19.6742 22.9271C19.6742 22.5547 19.3724 22.2529 19.0001 22.2529C18.6277 22.2529 18.3259 22.5547 18.3259 22.9271C18.3259 23.2994 18.6277 23.6012 19.0001 23.6012Z" fill="#39393E"/>
<path d="M21.618 23.6012C21.9903 23.6012 22.2921 23.2994 22.2921 22.9271C22.2921 22.5547 21.9903 22.2529 21.618 22.2529C21.2457 22.2529 20.9438 22.5547 20.9438 22.9271C20.9438 23.2994 21.2457 23.6012 21.618 23.6012Z" fill="#39393E"/>
<path d="M22.9271 23.6012C23.2994 23.6012 23.6012 23.2994 23.6012 22.9271C23.6012 22.5547 23.2994 22.2529 22.9271 22.2529C22.5547 22.2529 22.2529 22.5547 22.2529 22.9271C22.2529 23.2994 22.5547 23.6012 22.9271 23.6012Z" fill="#39393E"/>
<path d="M24.2359 23.6011C24.6082 23.6011 24.91 23.2992 24.91 22.9269C24.91 22.5546 24.6082 22.2528 24.2359 22.2528C23.8636 22.2528 23.5618 22.5546 23.5618 22.9269C23.5618 23.2992 23.8636 23.6011 24.2359 23.6011Z" fill="#39393E"/>
<path d="M25.5447 23.6012C25.917 23.6012 26.2189 23.2994 26.2189 22.9271C26.2189 22.5547 25.917 22.2529 25.5447 22.2529C25.1724 22.2529 24.8706 22.5547 24.8706 22.9271C24.8706 23.2994 25.1724 23.6012 25.5447 23.6012Z" fill="#39393E"/>
<path d="M28.1629 23.6012C28.5352 23.6012 28.837 23.2994 28.837 22.9271C28.837 22.5547 28.5352 22.2529 28.1629 22.2529C27.7906 22.2529 27.4888 22.5547 27.4888 22.9271C27.4888 23.2994 27.7906 23.6012 28.1629 23.6012Z" fill="#39393E"/>
<path d="M29.472 23.6012C29.8443 23.6012 30.1461 23.2994 30.1461 22.9271C30.1461 22.5547 29.8443 22.2529 29.472 22.2529C29.0997 22.2529 28.7979 22.5547 28.7979 22.9271C28.7979 23.2994 29.0997 23.6012 29.472 23.6012Z" fill="#39393E"/>
<path d="M30.7811 23.6012C31.1534 23.6012 31.4552 23.2994 31.4552 22.9271C31.4552 22.5547 31.1534 22.2529 30.7811 22.2529C30.4088 22.2529 30.1069 22.5547 30.1069 22.9271C30.1069 23.2994 30.4088 23.6012 30.7811 23.6012Z" fill="#39393E"/>
<path d="M32.0899 23.6012C32.4622 23.6012 32.764 23.2994 32.764 22.9271C32.764 22.5547 32.4622 22.2529 32.0899 22.2529C31.7176 22.2529 31.4158 22.5547 31.4158 22.9271C31.4158 23.2994 31.7176 23.6012 32.0899 23.6012Z" fill="#39393E"/>
<path d="M34.7078 23.6012C35.0801 23.6012 35.382 23.2994 35.382 22.9271C35.382 22.5547 35.0801 22.2529 34.7078 22.2529C34.3355 22.2529 34.0337 22.5547 34.0337 22.9271C34.0337 23.2994 34.3355 23.6012 34.7078 23.6012Z" fill="#39393E"/>
<path d="M37.326 23.6012C37.6983 23.6012 38.0001 23.2994 38.0001 22.9271C38.0001 22.5547 37.6983 22.2529 37.326 22.2529C36.9537 22.2529 36.6519 22.5547 36.6519 22.9271C36.6519 23.2994 36.9537 23.6012 37.326 23.6012Z" fill="#39393E"/>
<path d="M0.67413 24.91C1.04644 24.91 1.34826 24.6082 1.34826 24.2359C1.34826 23.8636 1.04644 23.5618 0.67413 23.5618C0.301818 23.5618 0 23.8636 0 24.2359C0 24.6082 0.301818 24.91 0.67413 24.91Z" fill="#39393E"/>
<path d="M3.29229 24.91C3.66461 24.91 3.96642 24.6082 3.96642 24.2359C3.96642 23.8636 3.66461 23.5618 3.29229 23.5618C2.91998 23.5618 2.61816 23.8636 2.61816 24.2359C2.61816 24.6082 2.91998 24.91 3.29229 24.91Z" fill="#39393E"/>
<path d="M7.21905 24.91C7.59136 24.91 7.89318 24.6082 7.89318 24.2359C7.89318 23.8636 7.59136 23.5618 7.21905 23.5618C6.84674 23.5618 6.54492 23.8636 6.54492 24.2359C6.54492 24.6082 6.84674 24.91 7.21905 24.91Z" fill="#39393E"/>
<path d="M8.52813 24.91C8.90045 24.91 9.20226 24.6082 9.20226 24.2359C9.20226 23.8636 8.90045 23.5618 8.52813 23.5618C8.15582 23.5618 7.854 23.8636 7.854 24.2359C7.854 24.6082 8.15582 24.91 8.52813 24.91Z" fill="#39393E"/>
<path d="M12.4549 24.91C12.8272 24.91 13.129 24.6082 13.129 24.2359C13.129 23.8636 12.8272 23.5618 12.4549 23.5618C12.0826 23.5618 11.7808 23.8636 11.7808 24.2359C11.7808 24.6082 12.0826 24.91 12.4549 24.91Z" fill="#39393E"/>
<path d="M15.0731 24.91C15.4454 24.91 15.7472 24.6082 15.7472 24.2359C15.7472 23.8636 15.4454 23.5618 15.0731 23.5618C14.7007 23.5618 14.3989 23.8636 14.3989 24.2359C14.3989 24.6082 14.7007 24.91 15.0731 24.91Z" fill="#39393E"/>
<path d="M16.3821 24.91C16.7544 24.91 17.0563 24.6082 17.0563 24.2359C17.0563 23.8636 16.7544 23.5618 16.3821 23.5618C16.0098 23.5618 15.708 23.8636 15.708 24.2359C15.708 24.6082 16.0098 24.91 16.3821 24.91Z" fill="#39393E"/>
<path d="M17.691 24.91C18.0633 24.91 18.3651 24.6082 18.3651 24.2359C18.3651 23.8636 18.0633 23.5618 17.691 23.5618C17.3187 23.5618 17.0168 23.8636 17.0168 24.2359C17.0168 24.6082 17.3187 24.91 17.691 24.91Z" fill="#39393E"/>
<path d="M19.0001 24.9102C19.3724 24.9102 19.6742 24.6083 19.6742 24.236C19.6742 23.8637 19.3724 23.5619 19.0001 23.5619C18.6277 23.5619 18.3259 23.8637 18.3259 24.236C18.3259 24.6083 18.6277 24.9102 19.0001 24.9102Z" fill="#39393E"/>
<path d="M20.3089 24.91C20.6812 24.91 20.983 24.6082 20.983 24.2359C20.983 23.8636 20.6812 23.5618 20.3089 23.5618C19.9366 23.5618 19.6348 23.8636 19.6348 24.2359C19.6348 24.6082 19.9366 24.91 20.3089 24.91Z" fill="#39393E"/>
<path d="M21.618 24.91C21.9903 24.91 22.2921 24.6082 22.2921 24.2359C22.2921 23.8636 21.9903 23.5618 21.618 23.5618C21.2457 23.5618 20.9438 23.8636 20.9438 24.2359C20.9438 24.6082 21.2457 24.91 21.618 24.91Z" fill="#39393E"/>
<path d="M22.9271 24.91C23.2994 24.91 23.6012 24.6082 23.6012 24.2359C23.6012 23.8636 23.2994 23.5618 22.9271 23.5618C22.5547 23.5618 22.2529 23.8636 22.2529 24.2359C22.2529 24.6082 22.5547 24.91 22.9271 24.91Z" fill="#39393E"/>
<path d="M26.8538 24.91C27.2261 24.91 27.5279 24.6082 27.5279 24.2359C27.5279 23.8636 27.2261 23.5618 26.8538 23.5618C26.4815 23.5618 26.1797 23.8636 26.1797 24.2359C26.1797 24.6082 26.4815 24.91 26.8538 24.91Z" fill="#39393E"/>
<path d="M29.472 24.91C29.8443 24.91 30.1461 24.6082 30.1461 24.2359C30.1461 23.8636 29.8443 23.5618 29.472 23.5618C29.0997 23.5618 28.7979 23.8636 28.7979 24.2359C28.7979 24.6082 29.0997 24.91 29.472 24.91Z" fill="#39393E"/>
<path d="M30.7811 24.91C31.1534 24.91 31.4552 24.6082 31.4552 24.2359C31.4552 23.8636 31.1534 23.5618 30.7811 23.5618C30.4088 23.5618 30.1069 23.8636 30.1069 24.2359C30.1069 24.6082 30.4088 24.91 30.7811 24.91Z" fill="#39393E"/>
<path d="M34.7078 24.91C35.0801 24.91 35.382 24.6082 35.382 24.2359C35.382 23.8636 35.0801 23.5618 34.7078 23.5618C34.3355 23.5618 34.0337 23.8636 34.0337 24.2359C34.0337 24.6082 34.3355 24.91 34.7078 24.91Z" fill="#39393E"/>
<path d="M0.67413 26.2191C1.04644 26.2191 1.34826 25.9173 1.34826 25.545C1.34826 25.1727 1.04644 24.8708 0.67413 24.8708C0.301818 24.8708 0 25.1727 0 25.545C0 25.9173 0.301818 26.2191 0.67413 26.2191Z" fill="#39393E"/>
<path d="M3.29229 26.2191C3.66461 26.2191 3.96642 25.9173 3.96642 25.545C3.96642 25.1727 3.66461 24.8708 3.29229 24.8708C2.91998 24.8708 2.61816 25.1727 2.61816 25.545C2.61816 25.9173 2.91998 26.2191 3.29229 26.2191Z" fill="#39393E"/>
<path d="M4.60113 26.2191C4.97344 26.2191 5.27526 25.9173 5.27526 25.545C5.27526 25.1727 4.97344 24.8708 4.60113 24.8708C4.22882 24.8708 3.927 25.1727 3.927 25.545C3.927 25.9173 4.22882 26.2191 4.60113 26.2191Z" fill="#39393E"/>
<path d="M7.21905 26.2191C7.59136 26.2191 7.89318 25.9173 7.89318 25.545C7.89318 25.1727 7.59136 24.8708 7.21905 24.8708C6.84674 24.8708 6.54492 25.1727 6.54492 25.545C6.54492 25.9173 6.84674 26.2191 7.21905 26.2191Z" fill="#39393E"/>
<path d="M9.83722 26.2191C10.2095 26.2191 10.5113 25.9173 10.5113 25.545C10.5113 25.1727 10.2095 24.8708 9.83722 24.8708C9.4649 24.8708 9.16309 25.1727 9.16309 25.545C9.16309 25.9173 9.4649 26.2191 9.83722 26.2191Z" fill="#39393E"/>
<path d="M12.4549 26.2191C12.8272 26.2191 13.129 25.9173 13.129 25.545C13.129 25.1727 12.8272 24.8708 12.4549 24.8708C12.0826 24.8708 11.7808 25.1727 11.7808 25.545C11.7808 25.9173 12.0826 26.2191 12.4549 26.2191Z" fill="#39393E"/>
<path d="M13.764 26.2191C14.1363 26.2191 14.4381 25.9173 14.4381 25.545C14.4381 25.1727 14.1363 24.8708 13.764 24.8708C13.3917 24.8708 13.0898 25.1727 13.0898 25.545C13.0898 25.9173 13.3917 26.2191 13.764 26.2191Z" fill="#39393E"/>
<path d="M16.3821 26.2191C16.7544 26.2191 17.0563 25.9173 17.0563 25.545C17.0563 25.1727 16.7544 24.8708 16.3821 24.8708C16.0098 24.8708 15.708 25.1727 15.708 25.545C15.708 25.9173 16.0098 26.2191 16.3821 26.2191Z" fill="#39393E"/>
<path d="M17.691 26.2191C18.0633 26.2191 18.3651 25.9173 18.3651 25.545C18.3651 25.1727 18.0633 24.8708 17.691 24.8708C17.3187 24.8708 17.0168 25.1727 17.0168 25.545C17.0168 25.9173 17.3187 26.2191 17.691 26.2191Z" fill="#39393E"/>
<path d="M20.3089 26.2191C20.6812 26.2191 20.983 25.9173 20.983 25.545C20.983 25.1727 20.6812 24.8708 20.3089 24.8708C19.9366 24.8708 19.6348 25.1727 19.6348 25.545C19.6348 25.9173 19.9366 26.2191 20.3089 26.2191Z" fill="#39393E"/>
<path d="M28.1629 26.2191C28.5352 26.2191 28.837 25.9173 28.837 25.545C28.837 25.1727 28.5352 24.8708 28.1629 24.8708C27.7906 24.8708 27.4888 25.1727 27.4888 25.545C27.4888 25.9173 27.7906 26.2191 28.1629 26.2191Z" fill="#39393E"/>
<path d="M29.472 26.2191C29.8443 26.2191 30.1461 25.9173 30.1461 25.545C30.1461 25.1727 29.8443 24.8708 29.472 24.8708C29.0997 24.8708 28.7979 25.1727 28.7979 25.545C28.7979 25.9173 29.0997 26.2191 29.472 26.2191Z" fill="#39393E"/>
<path d="M30.7811 26.2191C31.1534 26.2191 31.4552 25.9173 31.4552 25.545C31.4552 25.1727 31.1534 24.8708 30.7811 24.8708C30.4088 24.8708 30.1069 25.1727 30.1069 25.545C30.1069 25.9173 30.4088 26.2191 30.7811 26.2191Z" fill="#39393E"/>
<path d="M32.0899 26.2191C32.4622 26.2191 32.764 25.9173 32.764 25.545C32.764 25.1727 32.4622 24.8708 32.0899 24.8708C31.7176 24.8708 31.4158 25.1727 31.4158 25.545C31.4158 25.9173 31.7176 26.2191 32.0899 26.2191Z" fill="#39393E"/>
<path d="M36.0169 26.2191C36.3892 26.2191 36.691 25.9173 36.691 25.545C36.691 25.1727 36.3892 24.8708 36.0169 24.8708C35.6446 24.8708 35.3428 25.1727 35.3428 25.545C35.3428 25.9173 35.6446 26.2191 36.0169 26.2191Z" fill="#39393E"/>
<path d="M0.67413 27.5281C1.04644 27.5281 1.34826 27.2263 1.34826 26.8539C1.34826 26.4816 1.04644 26.1798 0.67413 26.1798C0.301818 26.1798 0 26.4816 0 26.8539C0 27.2263 0.301818 27.5281 0.67413 27.5281Z" fill="#39393E"/>
<path d="M5.90997 27.5281C6.28228 27.5281 6.5841 27.2263 6.5841 26.8539C6.5841 26.4816 6.28228 26.1798 5.90997 26.1798C5.53766 26.1798 5.23584 26.4816 5.23584 26.8539C5.23584 27.2263 5.53766 27.5281 5.90997 27.5281Z" fill="#39393E"/>
<path d="M7.21905 27.5281C7.59136 27.5281 7.89318 27.2263 7.89318 26.8539C7.89318 26.4816 7.59136 26.1798 7.21905 26.1798C6.84674 26.1798 6.54492 26.4816 6.54492 26.8539C6.54492 27.2263 6.84674 27.5281 7.21905 27.5281Z" fill="#39393E"/>
<path d="M8.52813 27.5281C8.90045 27.5281 9.20226 27.2263 9.20226 26.8539C9.20226 26.4816 8.90045 26.1798 8.52813 26.1798C8.15582 26.1798 7.854 26.4816 7.854 26.8539C7.854 27.2263 8.15582 27.5281 8.52813 27.5281Z" fill="#39393E"/>
<path d="M12.4549 27.5281C12.8272 27.5281 13.129 27.2263 13.129 26.8539C13.129 26.4816 12.8272 26.1798 12.4549 26.1798C12.0826 26.1798 11.7808 26.4816 11.7808 26.8539C11.7808 27.2263 12.0826 27.5281 12.4549 27.5281Z" fill="#39393E"/>
<path d="M16.3821 27.5281C16.7544 27.5281 17.0563 27.2263 17.0563 26.8539C17.0563 26.4816 16.7544 26.1798 16.3821 26.1798C16.0098 26.1798 15.708 26.4816 15.708 26.8539C15.708 27.2263 16.0098 27.5281 16.3821 27.5281Z" fill="#39393E"/>
<path d="M19.0001 27.5279C19.3724 27.5279 19.6742 27.2261 19.6742 26.8538C19.6742 26.4815 19.3724 26.1797 19.0001 26.1797C18.6277 26.1797 18.3259 26.4815 18.3259 26.8538C18.3259 27.2261 18.6277 27.5279 19.0001 27.5279Z" fill="#39393E"/>
<path d="M20.3089 27.5281C20.6812 27.5281 20.983 27.2263 20.983 26.8539C20.983 26.4816 20.6812 26.1798 20.3089 26.1798C19.9366 26.1798 19.6348 26.4816 19.6348 26.8539C19.6348 27.2263 19.9366 27.5281 20.3089 27.5281Z" fill="#39393E"/>
<path d="M22.9271 27.5281C23.2994 27.5281 23.6012 27.2263 23.6012 26.8539C23.6012 26.4816 23.2994 26.1798 22.9271 26.1798C22.5547 26.1798 22.2529 26.4816 22.2529 26.8539C22.2529 27.2263 22.5547 27.5281 22.9271 27.5281Z" fill="#39393E"/>
<path d="M25.5447 27.5279C25.917 27.5279 26.2189 27.2261 26.2189 26.8538C26.2189 26.4815 25.917 26.1797 25.5447 26.1797C25.1724 26.1797 24.8706 26.4815 24.8706 26.8538C24.8706 27.2261 25.1724 27.5279 25.5447 27.5279Z" fill="#39393E"/>
<path d="M26.8538 27.5281C27.2261 27.5281 27.5279 27.2263 27.5279 26.8539C27.5279 26.4816 27.2261 26.1798 26.8538 26.1798C26.4815 26.1798 26.1797 26.4816 26.1797 26.8539C26.1797 27.2263 26.4815 27.5281 26.8538 27.5281Z" fill="#39393E"/>
<path d="M28.1629 27.5281C28.5352 27.5281 28.837 27.2263 28.837 26.8539C28.837 26.4816 28.5352 26.1798 28.1629 26.1798C27.7906 26.1798 27.4888 26.4816 27.4888 26.8539C27.4888 27.2263 27.7906 27.5281 28.1629 27.5281Z" fill="#39393E"/>
<path d="M29.472 27.5281C29.8443 27.5281 30.1461 27.2263 30.1461 26.8539C30.1461 26.4816 29.8443 26.1798 29.472 26.1798C29.0997 26.1798 28.7979 26.4816 28.7979 26.8539C28.7979 27.2263 29.0997 27.5281 29.472 27.5281Z" fill="#39393E"/>
<path d="M30.7811 27.5281C31.1534 27.5281 31.4552 27.2263 31.4552 26.8539C31.4552 26.4816 31.1534 26.1798 30.7811 26.1798C30.4088 26.1798 30.1069 26.4816 30.1069 26.8539C30.1069 27.2263 30.4088 27.5281 30.7811 27.5281Z" fill="#39393E"/>
<path d="M32.0899 27.5281C32.4622 27.5281 32.764 27.2263 32.764 26.8539C32.764 26.4816 32.4622 26.1798 32.0899 26.1798C31.7176 26.1798 31.4158 26.4816 31.4158 26.8539C31.4158 27.2263 31.7176 27.5281 32.0899 27.5281Z" fill="#39393E"/>
<path d="M34.7078 27.5281C35.0801 27.5281 35.382 27.2263 35.382 26.8539C35.382 26.4816 35.0801 26.1798 34.7078 26.1798C34.3355 26.1798 34.0337 26.4816 34.0337 26.8539C34.0337 27.2263 34.3355 27.5281 34.7078 27.5281Z" fill="#39393E"/>
<path d="M36.0169 27.5281C36.3892 27.5281 36.691 27.2263 36.691 26.8539C36.691 26.4816 36.3892 26.1798 36.0169 26.1798C35.6446 26.1798 35.3428 26.4816 35.3428 26.8539C35.3428 27.2263 35.6446 27.5281 36.0169 27.5281Z" fill="#39393E"/>
<path d="M37.326 27.5281C37.6983 27.5281 38.0001 27.2263 38.0001 26.8539C38.0001 26.4816 37.6983 26.1798 37.326 26.1798C36.9537 26.1798 36.6519 26.4816 36.6519 26.8539C36.6519 27.2263 36.9537 27.5281 37.326 27.5281Z" fill="#39393E"/>
<path d="M11.1461 28.8372C11.5184 28.8372 11.8202 28.5353 11.8202 28.163C11.8202 27.7907 11.5184 27.4889 11.1461 27.4889C10.7737 27.4889 10.4719 27.7907 10.4719 28.163C10.4719 28.5353 10.7737 28.8372 11.1461 28.8372Z" fill="#39393E"/>
<path d="M12.4549 28.837C12.8272 28.837 13.129 28.5352 13.129 28.1629C13.129 27.7906 12.8272 27.4888 12.4549 27.4888C12.0826 27.4888 11.7808 27.7906 11.7808 28.1629C11.7808 28.5352 12.0826 28.837 12.4549 28.837Z" fill="#39393E"/>
<path d="M13.764 28.837C14.1363 28.837 14.4381 28.5352 14.4381 28.1629C14.4381 27.7906 14.1363 27.4888 13.764 27.4888C13.3917 27.4888 13.0898 27.7906 13.0898 28.1629C13.0898 28.5352 13.3917 28.837 13.764 28.837Z" fill="#39393E"/>
<path d="M15.0731 28.837C15.4454 28.837 15.7472 28.5352 15.7472 28.1629C15.7472 27.7906 15.4454 27.4888 15.0731 27.4888C14.7007 27.4888 14.3989 27.7906 14.3989 28.1629C14.3989 28.5352 14.7007 28.837 15.0731 28.837Z" fill="#39393E"/>
<path d="M21.618 28.837C21.9903 28.837 22.2921 28.5352 22.2921 28.1629C22.2921 27.7906 21.9903 27.4888 21.618 27.4888C21.2457 27.4888 20.9438 27.7906 20.9438 28.1629C20.9438 28.5352 21.2457 28.837 21.618 28.837Z" fill="#39393E"/>
<path d="M22.9271 28.837C23.2994 28.837 23.6012 28.5352 23.6012 28.1629C23.6012 27.7906 23.2994 27.4888 22.9271 27.4888C22.5547 27.4888 22.2529 27.7906 22.2529 28.1629C22.2529 28.5352 22.5547 28.837 22.9271 28.837Z" fill="#39393E"/>
<path d="M24.2359 28.837C24.6082 28.837 24.91 28.5352 24.91 28.1629C24.91 27.7906 24.6082 27.4888 24.2359 27.4888C23.8636 27.4888 23.5618 27.7906 23.5618 28.1629C23.5618 28.5352 23.8636 28.837 24.2359 28.837Z" fill="#39393E"/>
<path d="M26.8538 28.837C27.2261 28.837 27.5279 28.5352 27.5279 28.1629C27.5279 27.7906 27.2261 27.4888 26.8538 27.4888C26.4815 27.4888 26.1797 27.7906 26.1797 28.1629C26.1797 28.5352 26.4815 28.837 26.8538 28.837Z" fill="#39393E"/>
<path d="M32.0899 28.837C32.4622 28.837 32.764 28.5352 32.764 28.1629C32.764 27.7906 32.4622 27.4888 32.0899 27.4888C31.7176 27.4888 31.4158 27.7906 31.4158 28.1629C31.4158 28.5352 31.7176 28.837 32.0899 28.837Z" fill="#39393E"/>
<path d="M33.399 28.8372C33.7713 28.8372 34.0731 28.5353 34.0731 28.163C34.0731 27.7907 33.7713 27.4889 33.399 27.4889C33.0267 27.4889 32.7249 27.7907 32.7249 28.163C32.7249 28.5353 33.0267 28.8372 33.399 28.8372Z" fill="#39393E"/>
<path d="M34.7078 28.837C35.0801 28.837 35.382 28.5352 35.382 28.1629C35.382 27.7906 35.0801 27.4888 34.7078 27.4888C34.3355 27.4888 34.0337 27.7906 34.0337 28.1629C34.0337 28.5352 34.3355 28.837 34.7078 28.837Z" fill="#39393E"/>
<path d="M36.0169 28.837C36.3892 28.837 36.691 28.5352 36.691 28.1629C36.691 27.7906 36.3892 27.4888 36.0169 27.4888C35.6446 27.4888 35.3428 27.7906 35.3428 28.1629C35.3428 28.5352 35.6446 28.837 36.0169 28.837Z" fill="#39393E"/>
<path d="M37.326 28.837C37.6983 28.837 38.0001 28.5352 38.0001 28.1629C38.0001 27.7906 37.6983 27.4888 37.326 27.4888C36.9537 27.4888 36.6519 27.7906 36.6519 28.1629C36.6519 28.5352 36.9537 28.837 37.326 28.837Z" fill="#39393E"/>
<path d="M16.3821 30.1461C16.7544 30.1461 17.0563 29.8443 17.0563 29.472C17.0563 29.0997 16.7544 28.7979 16.3821 28.7979C16.0098 28.7979 15.708 29.0997 15.708 29.472C15.708 29.8443 16.0098 30.1461 16.3821 30.1461Z" fill="#39393E"/>
<path d="M20.3089 30.1461C20.6812 30.1461 20.983 29.8443 20.983 29.472C20.983 29.0997 20.6812 28.7979 20.3089 28.7979C19.9366 28.7979 19.6348 29.0997 19.6348 29.472C19.6348 29.8443 19.9366 30.1461 20.3089 30.1461Z" fill="#39393E"/>
<path d="M24.2359 30.146C24.6082 30.146 24.91 29.8442 24.91 29.4719C24.91 29.0995 24.6082 28.7977 24.2359 28.7977C23.8636 28.7977 23.5618 29.0995 23.5618 29.4719C23.5618 29.8442 23.8636 30.146 24.2359 30.146Z" fill="#39393E"/>
<path d="M25.5447 30.1461C25.917 30.1461 26.2189 29.8443 26.2189 29.472C26.2189 29.0997 25.917 28.7979 25.5447 28.7979C25.1724 28.7979 24.8706 29.0997 24.8706 29.472C24.8706 29.8443 25.1724 30.1461 25.5447 30.1461Z" fill="#39393E"/>
<path d="M26.8538 30.1461C27.2261 30.1461 27.5279 29.8443 27.5279 29.472C27.5279 29.0997 27.2261 28.7979 26.8538 28.7979C26.4815 28.7979 26.1797 29.0997 26.1797 29.472C26.1797 29.8443 26.4815 30.1461 26.8538 30.1461Z" fill="#39393E"/>
<path d="M29.472 30.1461C29.8443 30.1461 30.1461 29.8443 30.1461 29.472C30.1461 29.0997 29.8443 28.7979 29.472 28.7979C29.0997 28.7979 28.7979 29.0997 28.7979 29.472C28.7979 29.8443 29.0997 30.1461 29.472 30.1461Z" fill="#39393E"/>
<path d="M32.0899 30.1461C32.4622 30.1461 32.764 29.8443 32.764 29.472C32.764 29.0997 32.4622 28.7979 32.0899 28.7979C31.7176 28.7979 31.4158 29.0997 31.4158 29.472C31.4158 29.8443 31.7176 30.1461 32.0899 30.1461Z" fill="#39393E"/>
<path d="M33.399 30.1461C33.7713 30.1461 34.0731 29.8443 34.0731 29.472C34.0731 29.0997 33.7713 28.7979 33.399 28.7979C33.0267 28.7979 32.7249 29.0997 32.7249 29.472C32.7249 29.8443 33.0267 30.1461 33.399 30.1461Z" fill="#39393E"/>
<path d="M34.7078 30.1461C35.0801 30.1461 35.382 29.8443 35.382 29.472C35.382 29.0997 35.0801 28.7979 34.7078 28.7979C34.3355 28.7979 34.0337 29.0997 34.0337 29.472C34.0337 29.8443 34.3355 30.1461 34.7078 30.1461Z" fill="#39393E"/>
<path d="M11.1461 31.4549C11.5184 31.4549 11.8202 31.1531 11.8202 30.7808C11.8202 30.4085 11.5184 30.1067 11.1461 30.1067C10.7737 30.1067 10.4719 30.4085 10.4719 30.7808C10.4719 31.1531 10.7737 31.4549 11.1461 31.4549Z" fill="#39393E"/>
<path d="M13.764 31.4551C14.1363 31.4551 14.4381 31.1533 14.4381 30.7809C14.4381 30.4086 14.1363 30.1068 13.764 30.1068C13.3917 30.1068 13.0898 30.4086 13.0898 30.7809C13.0898 31.1533 13.3917 31.4551 13.764 31.4551Z" fill="#39393E"/>
<path d="M15.0731 31.4551C15.4454 31.4551 15.7472 31.1533 15.7472 30.7809C15.7472 30.4086 15.4454 30.1068 15.0731 30.1068C14.7007 30.1068 14.3989 30.4086 14.3989 30.7809C14.3989 31.1533 14.7007 31.4551 15.0731 31.4551Z" fill="#39393E"/>
<path d="M19.0001 31.4549C19.3724 31.4549 19.6742 31.1531 19.6742 30.7808C19.6742 30.4085 19.3724 30.1067 19.0001 30.1067C18.6277 30.1067 18.3259 30.4085 18.3259 30.7808C18.3259 31.1531 18.6277 31.4549 19.0001 31.4549Z" fill="#39393E"/>
<path d="M20.3089 31.4551C20.6812 31.4551 20.983 31.1533 20.983 30.7809C20.983 30.4086 20.6812 30.1068 20.3089 30.1068C19.9366 30.1068 19.6348 30.4086 19.6348 30.7809C19.6348 31.1533 19.9366 31.4551 20.3089 31.4551Z" fill="#39393E"/>
<path d="M21.618 31.4551C21.9903 31.4551 22.2921 31.1533 22.2921 30.7809C22.2921 30.4086 21.9903 30.1068 21.618 30.1068C21.2457 30.1068 20.9438 30.4086 20.9438 30.7809C20.9438 31.1533 21.2457 31.4551 21.618 31.4551Z" fill="#39393E"/>
<path d="M25.5447 31.4549C25.917 31.4549 26.2189 31.1531 26.2189 30.7808C26.2189 30.4085 25.917 30.1067 25.5447 30.1067C25.1724 30.1067 24.8706 30.4085 24.8706 30.7808C24.8706 31.1531 25.1724 31.4549 25.5447 31.4549Z" fill="#39393E"/>
<path d="M26.8538 31.4551C27.2261 31.4551 27.5279 31.1533 27.5279 30.7809C27.5279 30.4086 27.2261 30.1068 26.8538 30.1068C26.4815 30.1068 26.1797 30.4086 26.1797 30.7809C26.1797 31.1533 26.4815 31.4551 26.8538 31.4551Z" fill="#39393E"/>
<path d="M32.0899 31.4551C32.4622 31.4551 32.764 31.1533 32.764 30.7809C32.764 30.4086 32.4622 30.1068 32.0899 30.1068C31.7176 30.1068 31.4158 30.4086 31.4158 30.7809C31.4158 31.1533 31.7176 31.4551 32.0899 31.4551Z" fill="#39393E"/>
<path d="M36.0169 31.4551C36.3892 31.4551 36.691 31.1533 36.691 30.7809C36.691 30.4086 36.3892 30.1068 36.0169 30.1068C35.6446 30.1068 35.3428 30.4086 35.3428 30.7809C35.3428 31.1533 35.6446 31.4551 36.0169 31.4551Z" fill="#39393E"/>
<path d="M37.326 31.4551C37.6983 31.4551 38.0001 31.1533 38.0001 30.7809C38.0001 30.4086 37.6983 30.1068 37.326 30.1068C36.9537 30.1068 36.6519 30.4086 36.6519 30.7809C36.6519 31.1533 36.9537 31.4551 37.326 31.4551Z" fill="#39393E"/>
<path d="M11.1461 32.764C11.5184 32.764 11.8202 32.4622 11.8202 32.0899C11.8202 31.7176 11.5184 31.4158 11.1461 31.4158C10.7737 31.4158 10.4719 31.7176 10.4719 32.0899C10.4719 32.4622 10.7737 32.764 11.1461 32.764Z" fill="#39393E"/>
<path d="M12.4549 32.764C12.8272 32.764 13.129 32.4622 13.129 32.0899C13.129 31.7176 12.8272 31.4158 12.4549 31.4158C12.0826 31.4158 11.7808 31.7176 11.7808 32.0899C11.7808 32.4622 12.0826 32.764 12.4549 32.764Z" fill="#39393E"/>
<path d="M13.764 32.764C14.1363 32.764 14.4381 32.4622 14.4381 32.0899C14.4381 31.7176 14.1363 31.4158 13.764 31.4158C13.3917 31.4158 13.0898 31.7176 13.0898 32.0899C13.0898 32.4622 13.3917 32.764 13.764 32.764Z" fill="#39393E"/>
<path d="M16.3821 32.764C16.7544 32.764 17.0563 32.4622 17.0563 32.0899C17.0563 31.7176 16.7544 31.4158 16.3821 31.4158C16.0098 31.4158 15.708 31.7176 15.708 32.0899C15.708 32.4622 16.0098 32.764 16.3821 32.764Z" fill="#39393E"/>
<path d="M20.3089 32.764C20.6812 32.764 20.983 32.4622 20.983 32.0899C20.983 31.7176 20.6812 31.4158 20.3089 31.4158C19.9366 31.4158 19.6348 31.7176 19.6348 32.0899C19.6348 32.4622 19.9366 32.764 20.3089 32.764Z" fill="#39393E"/>
<path d="M21.618 32.764C21.9903 32.764 22.2921 32.4622 22.2921 32.0899C22.2921 31.7176 21.9903 31.4158 21.618 31.4158C21.2457 31.4158 20.9438 31.7176 20.9438 32.0899C20.9438 32.4622 21.2457 32.764 21.618 32.764Z" fill="#39393E"/>
<path d="M22.9271 32.764C23.2994 32.764 23.6012 32.4622 23.6012 32.0899C23.6012 31.7176 23.2994 31.4158 22.9271 31.4158C22.5547 31.4158 22.2529 31.7176 22.2529 32.0899C22.2529 32.4622 22.5547 32.764 22.9271 32.764Z" fill="#39393E"/>
<path d="M26.8538 32.764C27.2261 32.764 27.5279 32.4622 27.5279 32.0899C27.5279 31.7176 27.2261 31.4158 26.8538 31.4158C26.4815 31.4158 26.1797 31.7176 26.1797 32.0899C26.1797 32.4622 26.4815 32.764 26.8538 32.764Z" fill="#39393E"/>
<path d="M28.1629 32.764C28.5352 32.764 28.837 32.4622 28.837 32.0899C28.837 31.7176 28.5352 31.4158 28.1629 31.4158C27.7906 31.4158 27.4888 31.7176 27.4888 32.0899C27.4888 32.4622 27.7906 32.764 28.1629 32.764Z" fill="#39393E"/>
<path d="M29.472 32.764C29.8443 32.764 30.1461 32.4622 30.1461 32.0899C30.1461 31.7176 29.8443 31.4158 29.472 31.4158C29.0997 31.4158 28.7979 31.7176 28.7979 32.0899C28.7979 32.4622 29.0997 32.764 29.472 32.764Z" fill="#39393E"/>
<path d="M30.7811 32.764C31.1534 32.764 31.4552 32.4622 31.4552 32.0899C31.4552 31.7176 31.1534 31.4158 30.7811 31.4158C30.4088 31.4158 30.1069 31.7176 30.1069 32.0899C30.1069 32.4622 30.4088 32.764 30.7811 32.764Z" fill="#39393E"/>
<path d="M32.0899 32.764C32.4622 32.764 32.764 32.4622 32.764 32.0899C32.764 31.7176 32.4622 31.4158 32.0899 31.4158C31.7176 31.4158 31.4158 31.7176 31.4158 32.0899C31.4158 32.4622 31.7176 32.764 32.0899 32.764Z" fill="#39393E"/>
<path d="M34.7078 32.764C35.0801 32.764 35.382 32.4622 35.382 32.0899C35.382 31.7176 35.0801 31.4158 34.7078 31.4158C34.3355 31.4158 34.0337 31.7176 34.0337 32.0899C34.0337 32.4622 34.3355 32.764 34.7078 32.764Z" fill="#39393E"/>
<path d="M36.0169 32.764C36.3892 32.764 36.691 32.4622 36.691 32.0899C36.691 31.7176 36.3892 31.4158 36.0169 31.4158C35.6446 31.4158 35.3428 31.7176 35.3428 32.0899C35.3428 32.4622 35.6446 32.764 36.0169 32.764Z" fill="#39393E"/>
<path d="M11.1461 34.0731C11.5184 34.0731 11.8202 33.7713 11.8202 33.399C11.8202 33.0267 11.5184 32.7249 11.1461 32.7249C10.7737 32.7249 10.4719 33.0267 10.4719 33.399C10.4719 33.7713 10.7737 34.0731 11.1461 34.0731Z" fill="#39393E"/>
<path d="M19.0001 34.073C19.3724 34.073 19.6742 33.7712 19.6742 33.3989C19.6742 33.0265 19.3724 32.7247 19.0001 32.7247C18.6277 32.7247 18.3259 33.0265 18.3259 33.3989C18.3259 33.7712 18.6277 34.073 19.0001 34.073Z" fill="#39393E"/>
<path d="M21.618 34.073C21.9903 34.073 22.2921 33.7712 22.2921 33.3989C22.2921 33.0265 21.9903 32.7247 21.618 32.7247C21.2457 32.7247 20.9438 33.0265 20.9438 33.3989C20.9438 33.7712 21.2457 34.073 21.618 34.073Z" fill="#39393E"/>
<path d="M22.9271 34.073C23.2994 34.073 23.6012 33.7712 23.6012 33.3989C23.6012 33.0265 23.2994 32.7247 22.9271 32.7247C22.5547 32.7247 22.2529 33.0265 22.2529 33.3989C22.2529 33.7712 22.5547 34.073 22.9271 34.073Z" fill="#39393E"/>
<path d="M24.2359 34.0731C24.6082 34.0731 24.91 33.7713 24.91 33.399C24.91 33.0267 24.6082 32.7249 24.2359 32.7249C23.8636 32.7249 23.5618 33.0267 23.5618 33.399C23.5618 33.7713 23.8636 34.0731 24.2359 34.0731Z" fill="#39393E"/>
<path d="M25.5447 34.073C25.917 34.073 26.2189 33.7712 26.2189 33.3989C26.2189 33.0265 25.917 32.7247 25.5447 32.7247C25.1724 32.7247 24.8706 33.0265 24.8706 33.3989C24.8706 33.7712 25.1724 34.073 25.5447 34.073Z" fill="#39393E"/>
<path d="M26.8538 34.073C27.2261 34.073 27.5279 33.7712 27.5279 33.3989C27.5279 33.0265 27.2261 32.7247 26.8538 32.7247C26.4815 32.7247 26.1797 33.0265 26.1797 33.3989C26.1797 33.7712 26.4815 34.073 26.8538 34.073Z" fill="#39393E"/>
<path d="M30.7811 34.073C31.1534 34.073 31.4552 33.7712 31.4552 33.3989C31.4552 33.0265 31.1534 32.7247 30.7811 32.7247C30.4088 32.7247 30.1069 33.0265 30.1069 33.3989C30.1069 33.7712 30.4088 34.073 30.7811 34.073Z" fill="#39393E"/>
<path d="M33.399 34.073C33.7713 34.073 34.0731 33.7712 34.0731 33.3989C34.0731 33.0265 33.7713 32.7247 33.399 32.7247C33.0267 32.7247 32.7249 33.0265 32.7249 33.3989C32.7249 33.7712 33.0267 34.073 33.399 34.073Z" fill="#39393E"/>
<path d="M34.7078 34.073C35.0801 34.073 35.382 33.7712 35.382 33.3989C35.382 33.0265 35.0801 32.7247 34.7078 32.7247C34.3355 32.7247 34.0337 33.0265 34.0337 33.3989C34.0337 33.7712 34.3355 34.073 34.7078 34.073Z" fill="#39393E"/>
<path d="M36.0169 34.073C36.3892 34.073 36.691 33.7712 36.691 33.3989C36.691 33.0265 36.3892 32.7247 36.0169 32.7247C35.6446 32.7247 35.3428 33.0265 35.3428 33.3989C35.3428 33.7712 35.6446 34.073 36.0169 34.073Z" fill="#39393E"/>
<path d="M37.326 34.073C37.6983 34.073 38.0001 33.7712 38.0001 33.3989C38.0001 33.0265 37.6983 32.7247 37.326 32.7247C36.9537 32.7247 36.6519 33.0265 36.6519 33.3989C36.6519 33.7712 36.9537 34.073 37.326 34.073Z" fill="#39393E"/>
<path d="M11.1461 35.3821C11.5184 35.3821 11.8202 35.0803 11.8202 34.7079C11.8202 34.3356 11.5184 34.0338 11.1461 34.0338C10.7737 34.0338 10.4719 34.3356 10.4719 34.7079C10.4719 35.0803 10.7737 35.3821 11.1461 35.3821Z" fill="#39393E"/>
<path d="M12.4549 35.382C12.8272 35.382 13.129 35.0801 13.129 34.7078C13.129 34.3355 12.8272 34.0337 12.4549 34.0337C12.0826 34.0337 11.7808 34.3355 11.7808 34.7078C11.7808 35.0801 12.0826 35.382 12.4549 35.382Z" fill="#39393E"/>
<path d="M13.764 35.382C14.1363 35.382 14.4381 35.0801 14.4381 34.7078C14.4381 34.3355 14.1363 34.0337 13.764 34.0337C13.3917 34.0337 13.0898 34.3355 13.0898 34.7078C13.0898 35.0801 13.3917 35.382 13.764 35.382Z" fill="#39393E"/>
<path d="M16.3821 35.382C16.7544 35.382 17.0563 35.0801 17.0563 34.7078C17.0563 34.3355 16.7544 34.0337 16.3821 34.0337C16.0098 34.0337 15.708 34.3355 15.708 34.7078C15.708 35.0801 16.0098 35.382 16.3821 35.382Z" fill="#39393E"/>
<path d="M20.3089 35.382C20.6812 35.382 20.983 35.0801 20.983 34.7078C20.983 34.3355 20.6812 34.0337 20.3089 34.0337C19.9366 34.0337 19.6348 34.3355 19.6348 34.7078C19.6348 35.0801 19.9366 35.382 20.3089 35.382Z" fill="#39393E"/>
<path d="M21.618 35.382C21.9903 35.382 22.2921 35.0801 22.2921 34.7078C22.2921 34.3355 21.9903 34.0337 21.618 34.0337C21.2457 34.0337 20.9438 34.3355 20.9438 34.7078C20.9438 35.0801 21.2457 35.382 21.618 35.382Z" fill="#39393E"/>
<path d="M22.9271 35.382C23.2994 35.382 23.6012 35.0801 23.6012 34.7078C23.6012 34.3355 23.2994 34.0337 22.9271 34.0337C22.5547 34.0337 22.2529 34.3355 22.2529 34.7078C22.2529 35.0801 22.5547 35.382 22.9271 35.382Z" fill="#39393E"/>
<path d="M25.5447 35.3821C25.917 35.3821 26.2189 35.0803 26.2189 34.7079C26.2189 34.3356 25.917 34.0338 25.5447 34.0338C25.1724 34.0338 24.8706 34.3356 24.8706 34.7079C24.8706 35.0803 25.1724 35.3821 25.5447 35.3821Z" fill="#39393E"/>
<path d="M26.8538 35.382C27.2261 35.382 27.5279 35.0801 27.5279 34.7078C27.5279 34.3355 27.2261 34.0337 26.8538 34.0337C26.4815 34.0337 26.1797 34.3355 26.1797 34.7078C26.1797 35.0801 26.4815 35.382 26.8538 35.382Z" fill="#39393E"/>
<path d="M28.1629 35.382C28.5352 35.382 28.837 35.0801 28.837 34.7078C28.837 34.3355 28.5352 34.0337 28.1629 34.0337C27.7906 34.0337 27.4888 34.3355 27.4888 34.7078C27.4888 35.0801 27.7906 35.382 28.1629 35.382Z" fill="#39393E"/>
<path d="M29.472 35.382C29.8443 35.382 30.1461 35.0801 30.1461 34.7078C30.1461 34.3355 29.8443 34.0337 29.472 34.0337C29.0997 34.0337 28.7979 34.3355 28.7979 34.7078C28.7979 35.0801 29.0997 35.382 29.472 35.382Z" fill="#39393E"/>
<path d="M30.7811 35.382C31.1534 35.382 31.4552 35.0801 31.4552 34.7078C31.4552 34.3355 31.1534 34.0337 30.7811 34.0337C30.4088 34.0337 30.1069 34.3355 30.1069 34.7078C30.1069 35.0801 30.4088 35.382 30.7811 35.382Z" fill="#39393E"/>
<path d="M32.0899 35.382C32.4622 35.382 32.764 35.0801 32.764 34.7078C32.764 34.3355 32.4622 34.0337 32.0899 34.0337C31.7176 34.0337 31.4158 34.3355 31.4158 34.7078C31.4158 35.0801 31.7176 35.382 32.0899 35.382Z" fill="#39393E"/>
<path d="M33.399 35.3821C33.7713 35.3821 34.0731 35.0803 34.0731 34.7079C34.0731 34.3356 33.7713 34.0338 33.399 34.0338C33.0267 34.0338 32.7249 34.3356 32.7249 34.7079C32.7249 35.0803 33.0267 35.3821 33.399 35.3821Z" fill="#39393E"/>
<path d="M34.7078 35.382C35.0801 35.382 35.382 35.0801 35.382 34.7078C35.382 34.3355 35.0801 34.0337 34.7078 34.0337C34.3355 34.0337 34.0337 34.3355 34.0337 34.7078C34.0337 35.0801 34.3355 35.382 34.7078 35.382Z" fill="#39393E"/>
<path d="M36.0169 35.382C36.3892 35.382 36.691 35.0801 36.691 34.7078C36.691 34.3355 36.3892 34.0337 36.0169 34.0337C35.6446 34.0337 35.3428 34.3355 35.3428 34.7078C35.3428 35.0801 35.6446 35.382 36.0169 35.382Z" fill="#39393E"/>
<path d="M12.4549 36.691C12.8272 36.691 13.129 36.3892 13.129 36.0169C13.129 35.6446 12.8272 35.3428 12.4549 35.3428C12.0826 35.3428 11.7808 35.6446 11.7808 36.0169C11.7808 36.3892 12.0826 36.691 12.4549 36.691Z" fill="#39393E"/>
<path d="M15.0731 36.691C15.4454 36.691 15.7472 36.3892 15.7472 36.0169C15.7472 35.6446 15.4454 35.3428 15.0731 35.3428C14.7007 35.3428 14.3989 35.6446 14.3989 36.0169C14.3989 36.3892 14.7007 36.691 15.0731 36.691Z" fill="#39393E"/>
<path d="M17.691 36.6909C18.0633 36.6909 18.3651 36.3891 18.3651 36.0168C18.3651 35.6445 18.0633 35.3427 17.691 35.3427C17.3187 35.3427 17.0168 35.6445 17.0168 36.0168C17.0168 36.3891 17.3187 36.6909 17.691 36.6909Z" fill="#39393E"/>
<path d="M19.0001 36.691C19.3724 36.691 19.6742 36.3892 19.6742 36.0169C19.6742 35.6446 19.3724 35.3428 19.0001 35.3428C18.6277 35.3428 18.3259 35.6446 18.3259 36.0169C18.3259 36.3892 18.6277 36.691 19.0001 36.691Z" fill="#39393E"/>
<path d="M24.2359 36.6909C24.6082 36.6909 24.91 36.3891 24.91 36.0168C24.91 35.6445 24.6082 35.3427 24.2359 35.3427C23.8636 35.3427 23.5618 35.6445 23.5618 36.0168C23.5618 36.3891 23.8636 36.6909 24.2359 36.6909Z" fill="#39393E"/>
<path d="M26.8538 36.691C27.2261 36.691 27.5279 36.3892 27.5279 36.0169C27.5279 35.6446 27.2261 35.3428 26.8538 35.3428C26.4815 35.3428 26.1797 35.6446 26.1797 36.0169C26.1797 36.3892 26.4815 36.691 26.8538 36.691Z" fill="#39393E"/>
<path d="M28.1629 36.691C28.5352 36.691 28.837 36.3892 28.837 36.0169C28.837 35.6446 28.5352 35.3428 28.1629 35.3428C27.7906 35.3428 27.4888 35.6446 27.4888 36.0169C27.4888 36.3892 27.7906 36.691 28.1629 36.691Z" fill="#39393E"/>
<path d="M29.472 36.691C29.8443 36.691 30.1461 36.3892 30.1461 36.0169C30.1461 35.6446 29.8443 35.3428 29.472 35.3428C29.0997 35.3428 28.7979 35.6446 28.7979 36.0169C28.7979 36.3892 29.0997 36.691 29.472 36.691Z" fill="#39393E"/>
<path d="M30.7811 36.691C31.1534 36.691 31.4552 36.3892 31.4552 36.0169C31.4552 35.6446 31.1534 35.3428 30.7811 35.3428C30.4088 35.3428 30.1069 35.6446 30.1069 36.0169C30.1069 36.3892 30.4088 36.691 30.7811 36.691Z" fill="#39393E"/>
<path d="M33.399 36.691C33.7713 36.691 34.0731 36.3892 34.0731 36.0169C34.0731 35.6446 33.7713 35.3428 33.399 35.3428C33.0267 35.3428 32.7249 35.6446 32.7249 36.0169C32.7249 36.3892 33.0267 36.691 33.399 36.691Z" fill="#39393E"/>
<path d="M36.0169 36.691C36.3892 36.691 36.691 36.3892 36.691 36.0169C36.691 35.6446 36.3892 35.3428 36.0169 35.3428C35.6446 35.3428 35.3428 35.6446 35.3428 36.0169C35.3428 36.3892 35.6446 36.691 36.0169 36.691Z" fill="#39393E"/>
<path d="M11.1461 38.0001C11.5184 38.0001 11.8202 37.6983 11.8202 37.326C11.8202 36.9537 11.5184 36.6519 11.1461 36.6519C10.7737 36.6519 10.4719 36.9537 10.4719 37.326C10.4719 37.6983 10.7737 38.0001 11.1461 38.0001Z" fill="#39393E"/>
<path d="M15.0731 38C15.4454 38 15.7472 37.6982 15.7472 37.3259C15.7472 36.9536 15.4454 36.6517 15.0731 36.6517C14.7007 36.6517 14.3989 36.9536 14.3989 37.3259C14.3989 37.6982 14.7007 38 15.0731 38Z" fill="#39393E"/>
<path d="M16.3821 38C16.7544 38 17.0563 37.6982 17.0563 37.3259C17.0563 36.9536 16.7544 36.6517 16.3821 36.6517C16.0098 36.6517 15.708 36.9536 15.708 37.3259C15.708 37.6982 16.0098 38 16.3821 38Z" fill="#39393E"/>
<path d="M19.0001 38C19.3724 38 19.6742 37.6982 19.6742 37.3259C19.6742 36.9536 19.3724 36.6517 19.0001 36.6517C18.6277 36.6517 18.3259 36.9536 18.3259 37.3259C18.3259 37.6982 18.6277 38 19.0001 38Z" fill="#39393E"/>
<path d="M20.3089 38C20.6812 38 20.983 37.6982 20.983 37.3259C20.983 36.9536 20.6812 36.6517 20.3089 36.6517C19.9366 36.6517 19.6348 36.9536 19.6348 37.3259C19.6348 37.6982 19.9366 38 20.3089 38Z" fill="#39393E"/>
<path d="M21.618 38C21.9903 38 22.2921 37.6982 22.2921 37.3259C22.2921 36.9536 21.9903 36.6517 21.618 36.6517C21.2457 36.6517 20.9438 36.9536 20.9438 37.3259C20.9438 37.6982 21.2457 38 21.618 38Z" fill="#39393E"/>
<path d="M22.9271 38C23.2994 38 23.6012 37.6982 23.6012 37.3259C23.6012 36.9536 23.2994 36.6517 22.9271 36.6517C22.5547 36.6517 22.2529 36.9536 22.2529 37.3259C22.2529 37.6982 22.5547 38 22.9271 38Z" fill="#39393E"/>
<path d="M25.5447 38C25.917 38 26.2189 37.6982 26.2189 37.3259C26.2189 36.9536 25.917 36.6517 25.5447 36.6517C25.1724 36.6517 24.8706 36.9536 24.8706 37.3259C24.8706 37.6982 25.1724 38 25.5447 38Z" fill="#39393E"/>
<path d="M29.472 38C29.8443 38 30.1461 37.6982 30.1461 37.3259C30.1461 36.9536 29.8443 36.6517 29.472 36.6517C29.0997 36.6517 28.7979 36.9536 28.7979 37.3259C28.7979 37.6982 29.0997 38 29.472 38Z" fill="#39393E"/>
<path d="M30.7811 38C31.1534 38 31.4552 37.6982 31.4552 37.3259C31.4552 36.9536 31.1534 36.6517 30.7811 36.6517C30.4088 36.6517 30.1069 36.9536 30.1069 37.3259C30.1069 37.6982 30.4088 38 30.7811 38Z" fill="#39393E"/>
<path d="M32.0899 38C32.4622 38 32.764 37.6982 32.764 37.3259C32.764 36.9536 32.4622 36.6517 32.0899 36.6517C31.7176 36.6517 31.4158 36.9536 31.4158 37.3259C31.4158 37.6982 31.7176 38 32.0899 38Z" fill="#39393E"/>
<path d="M33.399 38C33.7713 38 34.0731 37.6982 34.0731 37.3259C34.0731 36.9536 33.7713 36.6517 33.399 36.6517C33.0267 36.6517 32.7249 36.9536 32.7249 37.3259C32.7249 37.6982 33.0267 38 33.399 38Z" fill="#39393E"/>
<path d="M34.7078 38C35.0801 38 35.382 37.6982 35.382 37.3259C35.382 36.9536 35.0801 36.6517 34.7078 36.6517C34.3355 36.6517 34.0337 36.9536 34.0337 37.3259C34.0337 37.6982 34.3355 38 34.7078 38Z" fill="#39393E"/>
<path d="M2.94523 9.16294H6.28316C7.85394 9.16294 9.16294 7.85394 9.16294 6.28316V2.94523C9.16294 1.30899 7.85394 0 6.21771 0H2.87978C1.30899 0 0 1.30899 0 2.87978V6.21771C0 7.85394 1.30899 9.16294 2.94523 9.16294ZM7.85394 3.14158V6.02136C7.85394 7.0031 7.0031 7.85394 6.02136 7.85394H3.14158C2.09439 7.85394 1.30899 7.06855 1.30899 6.02136V3.14158C1.30899 2.15983 2.15983 1.30899 3.14158 1.30899H6.02136C7.06855 1.30899 7.85394 2.09439 7.85394 3.14158Z" fill="#39393E"/>
<path d="M31.7431 9.16294H35.081C36.6518 9.16294 37.9608 7.85394 37.9608 6.28316V2.94523C37.9608 1.30899 36.6518 0 35.0156 0H31.6776C30.1068 0 28.7979 1.30899 28.7979 2.87978V6.21771C28.7979 7.85394 30.1068 9.16294 31.7431 9.16294ZM36.6518 3.14158V6.02136C36.6518 7.0031 35.801 7.85394 34.8192 7.85394H31.9394C30.8922 7.85394 30.1068 7.06855 30.1068 6.02136V3.14158C30.1068 2.15983 30.9577 1.30899 31.9394 1.30899H34.8192C35.8664 1.30899 36.6518 2.09439 36.6518 3.14158Z" fill="#39393E"/>
<path d="M2.94523 37.9608H6.28316C7.85394 37.9608 9.16294 36.6518 9.16294 35.081V31.7431C9.16294 30.1068 7.85394 28.7979 6.21771 28.7979H2.87978C1.30899 28.7979 0 30.1068 0 31.6776V35.0156C0 36.6518 1.30899 37.9608 2.94523 37.9608ZM7.85394 31.9394V34.8192C7.85394 35.801 7.0031 36.6518 6.02136 36.6518H3.14158C2.09439 36.6518 1.30899 35.8664 1.30899 34.8192V31.9394C1.30899 30.9577 2.15983 30.1068 3.14158 30.1068H6.02136C7.06855 30.1068 7.85394 30.8922 7.85394 31.9394Z" fill="#39393E"/>
<path d="M6.54514 3.73056V5.4977C6.54514 6.0213 6.02154 6.54489 5.43249 6.54489H3.73081C3.07631 6.54489 2.61816 6.08675 2.61816 5.43225V3.73056C2.61816 3.14152 3.14176 2.61792 3.73081 2.61792H5.49794C6.08699 2.61792 6.54514 3.07607 6.54514 3.73056Z" fill="#39393E"/>
<path d="M35.3427 3.73056V5.4977C35.3427 6.0213 34.8191 6.54489 34.2301 6.54489H32.5284C31.8739 6.54489 31.4158 6.08675 31.4158 5.43225V3.73056C31.4158 3.14152 31.9394 2.61792 32.5284 2.61792H34.2956C34.8846 2.61792 35.3427 3.07607 35.3427 3.73056Z" fill="#39393E"/>
<path d="M6.54514 32.5284V34.2956C6.54514 34.8191 6.02154 35.3427 5.43249 35.3427H3.73081C3.07631 35.3427 2.61816 34.8846 2.61816 34.2301V32.5284C2.61816 31.9394 3.14176 31.4158 3.73081 31.4158H5.49794C6.08699 31.4158 6.54514 31.8739 6.54514 32.5284Z" fill="#39393E"/>
</svg>
