<svg width="40" height="40" viewBox="0 0 40 40" fill="none" xmlns="http://www.w3.org/2000/svg"><circle cx="20" cy="20" r="20" fill="#66666A"></circle><path d="M24.5157 10H21.3136V22.942C21.3136 24.4841 20.0821 25.7507 18.5495 25.7507C17.0169 25.7507 15.7853 24.4841 15.7853 22.942C15.7853 21.4276 16.9895 20.1884 18.4674 20.1333V16.8841C15.2106 16.9391 12.5833 19.6101 12.5833 22.942C12.5833 26.3015 15.2653 29 18.5768 29C21.8883 29 24.5704 26.2739 24.5704 22.942V16.3058C25.7746 17.187 27.2524 17.7101 28.8124 17.7377V14.4884C26.4041 14.4058 24.5157 12.4232 24.5157 10Z" fill="white"></path></svg>