<svg width="40" height="40" viewBox="0 0 40 40" fill="none" xmlns="http://www.w3.org/2000/svg"><circle cx="20" cy="20" r="20" fill="#66666A"></circle><g clip-path="url(#clip0_11_5785)"><path d="M16.9772 28.2188C24.1453 28.2188 28.067 22.2787 28.067 17.1291C28.067 16.9621 28.0633 16.7914 28.0558 16.6244C28.8187 16.0727 29.4771 15.3893 30 14.6064C29.2895 14.9225 28.5351 15.1289 27.7627 15.2187C28.576 14.7311 29.185 13.9653 29.4768 13.063C28.7116 13.5164 27.8748 13.8363 27.0023 14.0089C26.4144 13.3842 25.6371 12.9706 24.7906 12.832C23.9441 12.6935 23.0754 12.8376 22.319 13.2422C21.5626 13.6467 20.9606 14.2892 20.606 15.0703C20.2513 15.8514 20.1639 16.7275 20.3571 17.5632C18.8078 17.4855 17.2921 17.083 15.9083 16.3819C14.5245 15.6808 13.3035 14.6967 12.3244 13.4935C11.8268 14.3514 11.6745 15.3666 11.8986 16.3328C12.1226 17.299 12.7061 18.1437 13.5305 18.6951C12.9116 18.6754 12.3062 18.5088 11.7645 18.2089V18.2572C11.7639 19.1575 12.0752 20.0303 12.6453 20.7271C13.2155 21.4239 14.0094 21.9018 14.892 22.0795C14.3187 22.2363 13.717 22.2592 13.1334 22.1463C13.3825 22.9206 13.8671 23.5978 14.5196 24.0834C15.1721 24.5691 15.9599 24.8389 16.7731 24.8552C15.3925 25.9397 13.6871 26.5279 11.9314 26.5252C11.6201 26.5247 11.3091 26.5056 11 26.468C12.7835 27.6122 14.8582 28.2199 16.9772 28.2188Z" fill="white"></path></g><defs><clipPath id="clip0_11_5785"><rect width="19" height="19" fill="white" transform="translate(11 11)"></rect></clipPath></defs></svg>