<svg width="40" height="40" viewBox="0 0 40 40" fill="none" xmlns="http://www.w3.org/2000/svg"><circle cx="20" cy="20" r="20" fill="#66666A"></circle><path fill-rule="evenodd" clip-rule="evenodd" d="M17.9977 22.7593V17.1533L23.1587 19.8974L17.9977 22.7593ZM29.556 16.0202C29.556 16.0202 29.3659 14.6485 28.783 14.0445C28.0436 13.2517 27.2148 13.2477 26.8347 13.2013C24.1137 13 20.0321 13 20.0321 13H20.0237C20.0237 13 15.9422 13 13.2211 13.2013C12.841 13.2477 12.0125 13.2517 11.2728 14.0445C10.6898 14.6485 10.5001 16.0202 10.5001 16.0202C10.5001 16.0202 10.3057 17.631 10.3057 19.2418V20.7519C10.3057 22.3627 10.5001 23.9735 10.5001 23.9735C10.5001 23.9735 10.6898 25.3452 11.2728 25.9492C12.0125 26.742 12.9841 26.717 13.4168 26.8C14.9724 26.9527 20.0279 27 20.0279 27C20.0279 27 24.1137 26.9937 26.8347 26.7924C27.2148 26.746 28.0436 26.742 28.783 25.9492C29.3659 25.3452 29.556 23.9735 29.556 23.9735C29.556 23.9735 29.7501 22.3627 29.7501 20.7519V19.2418C29.7501 17.631 29.556 16.0202 29.556 16.0202Z" fill="white"></path></svg>